<?xml version="1.0" encoding="UTF-8"?><svg xmlns="http://www.w3.org/2000/svg" xmlns:xlink="http://www.w3.org/1999/xlink" width="375pt" zoomAndPan="magnify" viewBox="0 0 375 374.999991" height="374.999991pt" preserveAspectRatio="xMidYMid meet" version="1.2"><g xml:id="surface1" id="surface1"><path style=" stroke:none;fill-rule:nonzero;fill:rgb(13.729858%,12.159729%,12.548828%);fill-opacity:1;" d="M 125.761719 107.660156 C 123.628906 110.289062 120.628906 112.125 117.1875 112.929688 C 117.257812 109.40625 118.429688 106.089844 120.5625 103.460938 C 122.691406 100.835938 125.6875 99 129.117188 98.199219 C 129.117188 98.269531 129.121094 98.339844 129.121094 98.402344 C 129.007812 101.851562 127.851562 105.085938 125.757812 107.664062 M 164.246094 103.453125 C 167.5625 102.765625 171.050781 103.246094 174.21875 104.796875 C 171.929688 107.480469 168.921875 109.304688 165.601562 109.988281 C 162.28125 110.675781 158.792969 110.199219 155.625 108.644531 C 157.914062 105.964844 160.925781 104.140625 164.246094 103.453125 M 118.335938 101.660156 C 115.421875 105.25 114.015625 109.898438 114.375 114.746094 C 114.402344 115.136719 114.597656 115.5 114.902344 115.75 C 115.160156 115.957031 115.480469 116.070312 115.804688 116.070312 C 115.871094 116.070312 115.933594 116.066406 116 116.054688 C 120.820312 115.398438 125.078125 113.054688 127.988281 109.460938 C 129.058594 108.140625 129.917969 106.683594 130.570312 105.121094 C 131.402344 107.015625 132.574219 108.796875 134.125 110.339844 C 136.855469 113.066406 140.4375 114.429688 144.019531 114.429688 C 147.417969 114.429688 150.808594 113.191406 153.480469 110.742188 C 156.347656 112.332031 159.472656 113.15625 162.597656 113.15625 C 163.796875 113.15625 165 113.035156 166.183594 112.789062 C 170.714844 111.855469 174.753906 109.148438 177.546875 105.171875 C 177.773438 104.847656 177.859375 104.441406 177.777344 104.058594 C 177.695312 103.671875 177.460938 103.335938 177.121094 103.128906 C 172.980469 100.589844 168.195312 99.707031 163.660156 100.648438 C 161.347656 101.125 159.167969 102.070312 157.214844 103.398438 C 157.550781 100.089844 156.453125 96.660156 153.917969 94.125 C 152.128906 92.335938 149.75 91.351562 147.21875 91.351562 C 144.6875 91.351562 142.308594 92.335938 140.519531 94.125 C 139.035156 95.609375 138.214844 97.578125 138.214844 99.675781 C 138.214844 101.773438 139.035156 103.746094 140.519531 105.226562 C 142.617188 107.320312 145.789062 107.699219 148.28125 106.371094 C 148.414062 106.402344 148.558594 106.417969 148.707031 106.417969 C 149.84375 106.417969 150.769531 105.492188 150.769531 104.355469 C 150.769531 103.21875 149.847656 102.296875 148.707031 102.296875 C 147.703125 102.296875 146.871094 103.011719 146.683594 103.957031 C 145.320312 104.5625 143.664062 104.316406 142.546875 103.199219 C 141.601562 102.253906 141.082031 101.003906 141.082031 99.671875 C 141.082031 98.339844 141.601562 97.082031 142.546875 96.140625 C 145.121094 93.566406 149.316406 93.566406 151.890625 96.140625 C 155.253906 99.496094 155.253906 104.953125 151.890625 108.308594 C 147.550781 112.644531 140.488281 112.644531 136.148438 108.308594 C 133.40625 105.574219 132.023438 101.992188 131.980469 98.398438 C 131.984375 98.242188 131.992188 98.082031 131.992188 97.921875 C 132.066406 94.378906 133.445312 90.855469 136.152344 88.15625 C 140.035156 84.277344 145.089844 82.308594 151.175781 82.308594 C 160.25 82.308594 170.210938 87.644531 178.691406 96.972656 C 178.683594 97.046875 178.667969 97.121094 178.667969 97.195312 C 178.667969 98.332031 179.59375 99.253906 180.730469 99.253906 C 181.867188 99.253906 182.792969 98.335938 182.792969 97.195312 C 182.792969 96.125 181.972656 95.253906 180.921875 95.152344 C 168.621094 81.523438 157.054688 79.449219 151.175781 79.449219 C 144.398438 79.449219 138.503906 81.757812 134.125 86.132812 C 131.550781 88.703125 129.980469 91.890625 129.386719 95.226562 C 124.957031 96.046875 121.054688 98.292969 118.332031 101.648438 "/><path style=" stroke:none;fill-rule:nonzero;fill:rgb(13.729858%,12.159729%,12.548828%);fill-opacity:1;" d="M 235.136719 212.515625 C 213.519531 231.1875 191.632812 242.792969 187.664062 244.832031 C 183.695312 242.792969 161.804688 231.1875 140.1875 212.515625 C 128.75 202.632812 119.945312 193.007812 113.179688 183.820312 C 113.15625 183.78125 113.136719 183.738281 113.109375 183.703125 C 112.648438 183.082031 112.414062 182.304688 112.457031 181.515625 C 112.5625 179.71875 114.019531 178.351562 115.730469 178.4375 C 116.625 178.484375 117.453125 178.945312 118.003906 179.6875 C 118.007812 179.695312 118.015625 179.699219 118.019531 179.707031 C 118.210938 180.019531 118.417969 180.324219 118.648438 180.613281 C 140.503906 209.8125 173.667969 229.953125 186.941406 237.273438 C 186.941406 237.273438 186.945312 237.277344 186.945312 237.277344 C 186.953125 237.28125 186.960938 237.285156 186.972656 237.289062 C 187.027344 237.320312 187.089844 237.332031 187.148438 237.359375 C 187.199219 237.378906 187.246094 237.402344 187.296875 237.417969 C 187.417969 237.453125 187.539062 237.46875 187.660156 237.46875 C 187.777344 237.46875 187.898438 237.453125 188.019531 237.417969 C 188.074219 237.40625 188.117188 237.378906 188.171875 237.363281 C 188.230469 237.335938 188.292969 237.320312 188.351562 237.292969 C 188.359375 237.289062 188.367188 237.285156 188.375 237.28125 C 188.375 237.28125 188.378906 237.277344 188.378906 237.277344 C 201.65625 229.957031 234.8125 209.816406 256.648438 180.648438 C 256.886719 180.351562 257.09375 180.039062 257.289062 179.71875 C 257.296875 179.707031 257.3125 179.699219 257.320312 179.6875 C 257.867188 178.945312 258.695312 178.484375 259.589844 178.4375 C 260.402344 178.394531 261.195312 178.683594 261.8125 179.25 C 262.441406 179.835938 262.8125 180.636719 262.863281 181.515625 C 262.902344 182.269531 262.691406 183.015625 262.265625 183.621094 C 253.933594 194.953125 244.179688 204.707031 235.136719 212.515625 M 146.054688 73.484375 C 161.578125 73.484375 176.347656 80.234375 186.578125 92 C 187.121094 92.625 188.199219 92.625 188.742188 92 C 198.972656 80.234375 213.742188 73.484375 229.265625 73.484375 C 258.871094 73.484375 282.957031 97.53125 282.957031 127.082031 C 282.957031 146.574219 275.523438 164.246094 265.273438 179.359375 C 264.9375 178.527344 264.429688 177.769531 263.753906 177.148438 C 262.5625 176.046875 261.023438 175.484375 259.425781 175.574219 C 259.148438 175.589844 258.875 175.632812 258.605469 175.683594 C 258.675781 174.855469 258.644531 174.007812 258.480469 173.171875 C 258.015625 170.773438 256.640625 168.695312 254.609375 167.324219 C 252.578125 165.957031 250.132812 165.460938 247.730469 165.925781 C 246.421875 166.179688 245.21875 166.707031 244.171875 167.457031 C 244.054688 167.480469 243.945312 167.511719 243.839844 167.566406 C 240.898438 169.007812 237.460938 169.351562 234.632812 168.492188 C 233.875 168.257812 233.074219 168.683594 232.84375 169.4375 C 232.613281 170.195312 233.035156 170.996094 233.792969 171.226562 C 234.488281 171.4375 235.203125 171.589844 235.9375 171.6875 C 230.320312 173.699219 225.617188 173.441406 222.46875 172.78125 C 222.199219 171.292969 220.898438 170.167969 219.335938 170.167969 C 218.324219 170.167969 217.4375 170.644531 216.851562 171.375 C 216.621094 171.503906 216.425781 171.691406 216.289062 171.9375 C 216.097656 172.289062 216.066406 172.683594 216.175781 173.039062 C 216.167969 173.148438 216.140625 173.25 216.140625 173.355469 C 216.140625 175.113281 217.570312 176.539062 219.332031 176.539062 C 220.25 176.539062 221.066406 176.148438 221.648438 175.53125 C 223.1875 175.871094 225.046875 176.125 227.179688 176.125 C 230.933594 176.125 235.507812 175.328125 240.550781 172.820312 C 240.257812 174.066406 240.21875 175.371094 240.46875 176.667969 C 240.621094 177.441406 241.371094 177.945312 242.148438 177.800781 C 242.925781 177.652344 243.433594 176.894531 243.28125 176.121094 C 242.957031 174.472656 243.300781 172.796875 244.246094 171.402344 C 245.1875 170.007812 246.613281 169.0625 248.269531 168.738281 C 249.921875 168.417969 251.601562 168.761719 253 169.699219 C 254.394531 170.640625 255.339844 172.066406 255.664062 173.71875 C 256.015625 175.53125 255.554688 177.40625 254.371094 178.894531 C 232.691406 207.855469 198.660156 228.265625 187.65625 234.394531 C 182.160156 231.335938 170.9375 224.71875 158.359375 215.246094 C 158.296875 215.164062 158.226562 215.085938 158.140625 215.015625 C 156.027344 213.261719 154.6875 210.882812 154.371094 208.320312 C 154.058594 205.757812 154.773438 203.128906 156.398438 200.914062 C 156.867188 200.273438 156.726562 199.378906 156.089844 198.914062 C 155.449219 198.449219 154.550781 198.585938 154.085938 199.222656 C 152.03125 202.027344 151.121094 205.386719 151.527344 208.671875 C 151.589844 209.171875 151.691406 209.660156 151.808594 210.144531 C 141.070312 201.46875 129.925781 190.90625 120.910156 178.863281 C 119.75 177.40625 119.289062 175.535156 119.640625 173.722656 C 120.304688 170.3125 123.621094 168.082031 127.035156 168.742188 C 129.601562 169.242188 131.503906 171.238281 132.007812 173.648438 C 130.789062 174.097656 129.921875 175.257812 129.921875 176.625 C 129.921875 178.382812 131.351562 179.808594 133.113281 179.808594 C 134.875 179.808594 136.300781 178.382812 136.300781 176.625 C 136.300781 175.558594 135.769531 174.617188 134.964844 174.039062 C 134.820312 172.539062 134.304688 171.085938 133.4375 169.800781 C 132.0625 167.773438 129.988281 166.402344 127.582031 165.933594 C 125.171875 165.46875 122.730469 165.964844 120.699219 167.332031 C 118.671875 168.703125 117.292969 170.777344 116.828125 173.179688 C 116.664062 174.015625 116.636719 174.859375 116.703125 175.695312 C 116.433594 175.640625 116.160156 175.59375 115.882812 175.582031 C 113.289062 175.421875 110.976562 177.035156 110.035156 179.382812 C 96.035156 158.660156 92.371094 140.441406 92.371094 127.085938 C 92.371094 97.53125 116.453125 73.488281 146.054688 73.488281 M 229.265625 70.625 C 214.144531 70.625 199.710938 76.71875 189.101562 87.433594 L 189.101562 66.765625 L 212.066406 66.765625 C 212.859375 66.765625 213.5 66.125 213.5 65.335938 C 213.5 64.546875 212.859375 63.90625 212.066406 63.90625 L 189.101562 63.90625 L 189.101562 40.976562 C 189.101562 40.1875 188.457031 39.542969 187.667969 39.542969 C 186.875 39.542969 186.234375 40.1875 186.234375 40.976562 L 186.234375 63.90625 L 163.269531 63.90625 C 162.480469 63.90625 161.835938 64.546875 161.835938 65.335938 C 161.835938 66.125 162.480469 66.765625 163.269531 66.765625 L 186.238281 66.765625 L 186.238281 87.441406 C 175.628906 76.71875 161.191406 70.621094 146.058594 70.621094 C 114.875 70.621094 89.503906 95.953125 89.503906 127.085938 C 89.503906 156.820312 106.398438 187.125 138.363281 214.722656 C 162.402344 235.480469 186.78125 247.601562 187.027344 247.722656 C 187.230469 247.820312 187.445312 247.867188 187.664062 247.867188 C 187.878906 247.867188 188.097656 247.820312 188.296875 247.722656 C 188.542969 247.601562 212.921875 235.480469 236.964844 214.722656 C 268.925781 187.125 285.824219 156.820312 285.824219 127.085938 C 285.824219 95.953125 260.453125 70.625 229.265625 70.625 "/><path style=" stroke:none;fill-rule:nonzero;fill:rgb(13.729858%,12.159729%,12.548828%);fill-opacity:1;" d="M 194.371094 122.445312 C 194.273438 122.445312 194.175781 122.453125 194.082031 122.476562 C 193.890625 122.464844 193.703125 122.445312 193.511719 122.445312 L 167.335938 122.445312 C 172.644531 117.46875 180.632812 114.519531 190.199219 114.519531 C 195.105469 114.519531 199.304688 115.273438 202.871094 116.421875 C 201.636719 119.925781 198.300781 122.445312 194.375 122.445312 M 157.460938 138.726562 C 157.460938 144.4375 159.066406 149.011719 161.542969 152.699219 L 152.617188 152.699219 L 152.617188 126.464844 C 152.617188 125.996094 152.386719 125.574219 152.03125 125.3125 L 161.359375 125.3125 C 158.820312 129.292969 157.460938 133.882812 157.460938 138.730469 M 204.820312 149.757812 C 204.820312 147.902344 205.800781 146.496094 207.734375 145.582031 C 209.335938 144.824219 211.535156 144.449219 214.132812 144.449219 C 217.863281 144.449219 222.414062 145.21875 227.191406 146.722656 C 232.261719 148.320312 238.496094 150.902344 242.644531 152.703125 L 206.722656 152.703125 C 205.507812 151.871094 204.816406 150.8125 204.816406 149.757812 M 227.191406 161.542969 C 222.449219 163.035156 217.945312 163.824219 214.160156 163.824219 L 214.15625 163.824219 C 211.527344 163.824219 209.308594 163.433594 207.730469 162.683594 C 205.792969 161.769531 204.816406 160.363281 204.816406 158.507812 C 204.816406 157.453125 205.511719 156.394531 206.722656 155.5625 L 242.644531 155.5625 C 238.484375 157.367188 232.257812 159.945312 227.191406 161.542969 M 171.285156 161.535156 C 171.167969 161.5625 171.050781 161.570312 170.9375 161.597656 C 167.296875 162.414062 164.082031 164.648438 161.886719 167.886719 C 161.664062 168.210938 161.585938 168.617188 161.671875 169 C 161.757812 169.386719 162 169.722656 162.34375 169.921875 C 164.761719 171.347656 167.429688 172.078125 170.09375 172.078125 C 171.140625 172.078125 172.1875 171.964844 173.214844 171.730469 C 176.609375 170.972656 179.625 168.964844 181.796875 166.074219 C 183.804688 166.703125 185.558594 167.152344 186.84375 167.480469 C 187.34375 167.605469 187.765625 167.714844 188.097656 167.808594 C 188.453125 167.90625 188.917969 168.023438 189.480469 168.164062 C 195.886719 169.753906 215.375 174.585938 215.375 192.511719 C 215.375 199.253906 212.015625 205.328125 206.648438 209.59375 C 206.890625 209.097656 207.117188 208.59375 207.300781 208.074219 C 208.546875 204.5625 208.367188 200.660156 206.789062 197.082031 C 206.628906 196.722656 206.328125 196.441406 205.953125 196.308594 C 205.582031 196.179688 205.171875 196.207031 204.820312 196.386719 C 201.339844 198.179688 198.734375 201.097656 197.492188 204.609375 C 196.382812 207.726562 196.410156 211.160156 197.535156 214.394531 C 194.597656 215.324219 191.425781 215.832031 188.113281 215.832031 C 174.203125 215.832031 162.707031 206.875 161.0625 195.34375 L 184.917969 195.34375 C 188.394531 195.34375 191.226562 198.167969 191.226562 201.640625 C 191.226562 205.113281 188.394531 207.9375 184.917969 207.9375 C 183.074219 207.9375 181.324219 207.132812 180.121094 205.726562 C 179.609375 205.125 178.703125 205.050781 178.101562 205.566406 C 177.5 206.082031 177.429688 206.984375 177.941406 207.585938 C 179.691406 209.625 182.234375 210.796875 184.917969 210.796875 C 189.976562 210.796875 194.089844 206.6875 194.089844 201.640625 C 194.089844 199.199219 193.125 196.988281 191.5625 195.34375 L 198.066406 195.34375 C 203.152344 195.34375 207.292969 191.238281 207.292969 186.1875 C 207.292969 181.140625 203.179688 177.03125 198.121094 177.03125 C 195.433594 177.03125 192.886719 178.199219 191.144531 180.242188 C 190.632812 180.84375 190.699219 181.746094 191.304688 182.257812 C 191.90625 182.769531 192.808594 182.699219 193.324219 182.097656 C 194.527344 180.691406 196.273438 179.886719 198.125 179.886719 C 201.601562 179.886719 204.429688 182.710938 204.429688 186.183594 C 204.429688 189.65625 201.578125 192.480469 198.070312 192.480469 L 160.90625 192.480469 C 160.910156 192.246094 160.910156 192.011719 160.898438 191.785156 C 161.269531 185.011719 166.886719 179.609375 173.757812 179.609375 C 175.832031 179.609375 177.824219 180.101562 179.628906 181.023438 C 179.597656 181.210938 179.570312 181.40625 179.570312 181.601562 C 179.570312 183.359375 181 184.785156 182.761719 184.785156 C 184.523438 184.785156 185.953125 183.359375 185.953125 181.601562 C 185.953125 179.84375 184.523438 178.417969 182.761719 178.417969 C 182.273438 178.417969 181.820312 178.535156 181.40625 178.726562 C 179.082031 177.429688 176.480469 176.75 173.757812 176.75 C 167.082031 176.75 161.378906 180.917969 159.085938 186.78125 C 158.816406 186.414062 158.523438 186.058594 158.191406 185.730469 C 156.632812 184.171875 154.652344 183.289062 152.613281 183.070312 L 152.613281 155.558594 L 163.769531 155.558594 C 165.984375 158 168.59375 159.953125 171.285156 161.53125 M 178.894531 165.128906 C 177.199219 167.0625 175.011719 168.390625 172.589844 168.9375 C 170.171875 169.480469 167.617188 169.214844 165.261719 168.191406 C 166.957031 166.257812 169.144531 164.929688 171.566406 164.386719 C 173.984375 163.84375 176.539062 164.109375 178.894531 165.128906 M 223.632812 187.503906 C 226.234375 185.335938 229.539062 184.125 233.066406 184.003906 C 232.308594 187.445312 230.515625 190.472656 227.90625 192.632812 C 225.296875 194.796875 221.996094 196.015625 218.472656 196.132812 C 219.226562 192.691406 221.023438 189.667969 223.628906 187.503906 M 200.195312 205.558594 C 201.023438 203.222656 202.613281 201.210938 204.734375 199.761719 C 205.472656 202.222656 205.429688 204.78125 204.601562 207.113281 C 203.777344 209.449219 202.191406 211.460938 200.066406 212.910156 C 199.332031 210.449219 199.371094 207.886719 200.195312 205.558594 M 152.613281 185.953125 C 153.914062 186.160156 155.167969 186.757812 156.164062 187.753906 C 157.265625 188.851562 157.914062 190.300781 158.027344 191.828125 C 158.019531 192.027344 158 192.214844 158 192.410156 C 158 192.433594 157.992188 192.453125 157.992188 192.480469 L 152.613281 192.480469 Z M 224.808594 127.886719 C 226.738281 130.101562 227.875 132.929688 228.078125 135.96875 C 225.089844 135.339844 222.445312 133.828125 220.519531 131.613281 C 218.59375 129.394531 217.460938 126.570312 217.25 123.53125 C 220.242188 124.160156 222.886719 125.671875 224.808594 127.886719 M 180.804688 133.546875 C 178.242188 133.585938 175.773438 132.863281 173.746094 131.441406 C 171.71875 130.015625 170.199219 127.949219 169.371094 125.515625 C 171.929688 125.472656 174.402344 126.199219 176.429688 127.621094 C 178.457031 129.042969 179.972656 131.113281 180.804688 133.546875 M 143.621094 172.859375 C 142.113281 170.894531 141.289062 168.46875 141.230469 165.902344 C 143.699219 166.628906 145.828125 168.0625 147.332031 170.027344 C 148.839844 171.992188 149.664062 174.417969 149.722656 176.984375 C 147.253906 176.253906 145.125 174.828125 143.621094 172.859375 M 190.195312 111.65625 C 180.488281 111.65625 172.1875 114.433594 166.191406 119.6875 C 165.203125 120.554688 164.296875 121.476562 163.472656 122.445312 L 140.148438 122.445312 C 139.355469 122.445312 138.714844 123.089844 138.714844 123.878906 L 138.714844 124.773438 C 138.714844 125.480469 139.230469 126.082031 139.929688 126.1875 L 149.746094 127.691406 L 149.746094 168.484375 C 149.699219 168.421875 149.660156 168.355469 149.609375 168.289062 C 147.347656 165.332031 143.96875 163.351562 140.105469 162.714844 C 139.71875 162.648438 139.316406 162.75 139.003906 162.988281 C 138.695312 163.226562 138.488281 163.585938 138.449219 163.980469 C 138.050781 167.867188 139.078125 171.640625 141.347656 174.601562 C 143.394531 177.277344 146.351562 179.136719 149.75 179.945312 L 149.75 183.199219 C 148.011719 183.550781 146.359375 184.394531 145.011719 185.734375 C 143.25 187.492188 142.28125 189.832031 142.28125 192.316406 C 142.28125 194.800781 143.25 197.140625 145.011719 198.898438 C 145.289062 199.175781 145.660156 199.320312 146.023438 199.320312 C 146.386719 199.320312 146.757812 199.179688 147.039062 198.898438 C 147.601562 198.335938 147.601562 197.433594 147.039062 196.875 C 145.820312 195.65625 145.148438 194.035156 145.148438 192.316406 C 145.148438 190.59375 145.820312 188.976562 147.039062 187.757812 C 147.820312 186.976562 148.753906 186.4375 149.75 186.144531 L 149.75 193.910156 C 149.75 194.699219 150.390625 195.339844 151.183594 195.339844 L 158.171875 195.339844 C 159.804688 208.449219 172.609375 218.6875 188.117188 218.6875 C 189.363281 218.6875 190.585938 218.613281 191.789062 218.488281 C 189.679688 220.402344 188.191406 222.371094 187.152344 224.097656 C 186.304688 224.355469 185.679688 225.128906 185.679688 226.058594 C 185.679688 227.195312 186.601562 228.121094 187.746094 228.121094 C 188.886719 228.121094 189.808594 227.199219 189.808594 226.058594 C 189.808594 225.832031 189.761719 225.625 189.699219 225.421875 C 191.347656 222.730469 194.246094 219.386719 199.199219 216.84375 C 207.972656 213.820312 214.738281 207.3125 217.214844 199.289062 C 217.804688 199.332031 218.390625 199.410156 218.964844 199.554688 C 221.175781 200.121094 223.109375 201.425781 224.5625 203.320312 C 224.84375 203.6875 225.269531 203.886719 225.703125 203.886719 C 226.007812 203.886719 226.3125 203.785156 226.570312 203.589844 C 227.203125 203.113281 227.320312 202.214844 226.839844 201.582031 C 225.800781 200.226562 224.558594 199.113281 223.167969 198.265625 C 225.585938 197.578125 227.824219 196.429688 229.746094 194.828125 C 233.304688 191.875 235.59375 187.589844 236.183594 182.765625 C 236.230469 182.375 236.113281 181.980469 235.859375 181.679688 C 235.605469 181.375 235.238281 181.1875 234.84375 181.167969 C 229.980469 180.875 225.351562 182.34375 221.792969 185.300781 C 220.324219 186.523438 219.085938 187.976562 218.078125 189.597656 C 216.152344 171.839844 196.773438 167.015625 190.175781 165.378906 C 189.644531 165.25 189.203125 165.136719 188.871094 165.042969 C 188.523438 164.945312 188.082031 164.835938 187.554688 164.699219 C 183.507812 163.667969 174.488281 161.359375 167.9375 155.554688 L 183.207031 155.554688 C 183.296875 155.574219 183.394531 155.589844 183.492188 155.589844 C 186.3125 155.644531 188.894531 156.585938 190.953125 158.316406 C 192.214844 159.375 193.222656 160.667969 193.945312 162.171875 C 194.191406 162.683594 194.703125 162.984375 195.238281 162.984375 C 195.445312 162.984375 195.65625 162.9375 195.855469 162.84375 C 196.570312 162.5 196.871094 161.648438 196.527344 160.9375 C 195.632812 159.066406 194.375 157.449219 192.796875 156.125 C 192.554688 155.921875 192.304688 155.738281 192.054688 155.554688 L 202.804688 155.554688 C 202.25 156.472656 201.949219 157.46875 201.949219 158.5 C 201.949219 161.472656 203.566406 163.875 206.503906 165.265625 C 208.488281 166.207031 211.058594 166.679688 214.15625 166.679688 L 214.160156 166.679688 C 218.230469 166.679688 223.035156 165.84375 228.050781 164.261719 C 236.472656 161.609375 247.957031 156.328125 248.480469 156.085938 C 248.496094 156.082031 248.507812 156.074219 248.519531 156.066406 C 248.585938 156.035156 248.644531 155.996094 248.699219 155.964844 C 248.746094 155.941406 248.835938 155.882812 248.878906 155.851562 C 248.933594 155.808594 248.980469 155.769531 249.046875 155.710938 C 249.117188 155.652344 249.179688 155.59375 249.191406 155.582031 C 249.214844 155.554688 249.238281 155.53125 249.261719 155.507812 C 249.296875 155.460938 249.347656 155.40625 249.382812 155.347656 C 249.4375 155.273438 249.484375 155.203125 249.519531 155.148438 C 249.550781 155.089844 249.605469 154.984375 249.628906 154.921875 C 249.664062 154.832031 249.703125 154.742188 249.722656 154.660156 C 249.742188 154.578125 249.761719 154.496094 249.777344 154.371094 C 249.789062 154.289062 249.792969 154.207031 249.792969 154.125 C 249.792969 154.058594 249.777344 153.894531 249.769531 153.832031 C 249.761719 153.769531 249.734375 153.65625 249.722656 153.597656 C 249.699219 153.507812 249.664062 153.414062 249.625 153.328125 C 249.601562 153.273438 249.554688 153.171875 249.527344 153.125 C 249.480469 153.050781 249.433594 152.972656 249.378906 152.902344 C 249.34375 152.84375 249.292969 152.785156 249.253906 152.742188 C 249.226562 152.71875 249.203125 152.691406 249.179688 152.664062 C 249.132812 152.621094 249.085938 152.570312 249.03125 152.527344 C 248.988281 152.488281 248.902344 152.421875 248.855469 152.386719 C 248.804688 152.355469 248.75 152.316406 248.691406 152.285156 C 248.632812 152.253906 248.574219 152.214844 248.515625 152.1875 C 248.492188 152.175781 248.460938 152.160156 248.4375 152.148438 C 247.953125 151.925781 236.46875 146.644531 228.046875 143.992188 C 219.152344 141.191406 211.097656 140.8125 206.5 142.988281 C 203.5625 144.378906 201.945312 146.78125 201.945312 149.753906 C 201.945312 150.785156 202.246094 151.78125 202.800781 152.699219 L 173.589844 152.699219 C 173.867188 152.496094 174.144531 152.292969 174.40625 152.074219 C 177.265625 149.675781 179.09375 146.222656 179.554688 142.339844 C 179.648438 141.554688 179.085938 140.84375 178.300781 140.75 C 177.507812 140.660156 176.804688 141.21875 176.710938 142 C 176.335938 145.15625 174.863281 147.953125 172.566406 149.878906 C 170.515625 151.59375 167.890625 152.535156 165.097656 152.597656 C 162.246094 149.0625 160.320312 144.542969 160.320312 138.726562 C 160.320312 133.609375 161.910156 129.050781 164.753906 125.308594 L 166.335938 125.308594 C 167.242188 128.796875 169.257812 131.789062 172.09375 133.777344 C 174.550781 135.503906 177.5 136.40625 180.578125 136.40625 C 181.324219 136.40625 182.082031 136.355469 182.835938 136.246094 C 183.226562 136.191406 183.578125 135.976562 183.804688 135.65625 C 184.035156 135.332031 184.117188 134.929688 184.035156 134.542969 C 183.25 130.730469 181.144531 127.449219 178.109375 125.308594 L 193.511719 125.308594 C 198.753906 125.308594 203.019531 129.53125 203.019531 134.71875 C 203.019531 139.90625 198.789062 144.128906 193.589844 144.128906 C 190.128906 144.128906 186.949219 142.242188 185.296875 139.203125 C 184.917969 138.507812 184.046875 138.25 183.351562 138.625 C 182.65625 139.003906 182.398438 139.875 182.777344 140.570312 C 184.929688 144.53125 189.074219 146.992188 193.589844 146.992188 C 200.367188 146.992188 205.882812 141.484375 205.882812 134.71875 C 205.882812 130.160156 203.359375 126.183594 199.628906 124.066406 C 202.375 122.699219 204.519531 120.3125 205.558594 117.394531 C 209.296875 118.933594 212.195312 120.882812 214.363281 122.71875 C 214.414062 126.757812 215.796875 130.554688 218.347656 133.484375 C 221.09375 136.640625 225.015625 138.617188 229.382812 139.058594 C 229.433594 139.0625 229.480469 139.070312 229.527344 139.070312 C 229.871094 139.070312 230.207031 138.945312 230.464844 138.71875 C 230.765625 138.460938 230.941406 138.085938 230.957031 137.695312 C 231.128906 133.3125 229.710938 129.164062 226.96875 126.007812 C 224.261719 122.898438 220.417969 120.9375 216.121094 120.460938 C 213.683594 118.414062 210.410156 116.246094 206.1875 114.570312 C 206.21875 114.199219 206.246094 113.824219 206.246094 113.449219 C 206.246094 106.90625 200.917969 101.589844 194.367188 101.589844 C 190.886719 101.589844 187.59375 103.105469 185.328125 105.75 C 184.8125 106.351562 184.886719 107.253906 185.488281 107.765625 C 186.089844 108.277344 186.996094 108.207031 187.507812 107.605469 C 189.226562 105.597656 191.726562 104.445312 194.367188 104.445312 C 199.335938 104.445312 203.378906 108.480469 203.378906 113.445312 C 203.378906 113.484375 203.375 113.527344 203.371094 113.566406 C 199.625 112.40625 195.253906 111.652344 190.1875 111.652344 "/><path style=" stroke:none;fill-rule:nonzero;fill:rgb(13.729858%,12.159729%,12.548828%);fill-opacity:1;" d="M 138.851562 156.023438 C 135.515625 157.167969 131.996094 157.207031 128.789062 156.109375 C 125.582031 155.007812 122.828125 152.824219 120.890625 149.878906 C 124.226562 148.734375 127.75 148.691406 130.953125 149.792969 C 134.160156 150.890625 136.917969 153.074219 138.851562 156.023438 M 111.835938 164.644531 C 112.339844 164.726562 112.839844 164.765625 113.335938 164.765625 C 117.742188 164.765625 121.640625 161.578125 122.378906 157.097656 C 122.449219 156.675781 122.476562 156.253906 122.492188 155.832031 C 124.101562 157.125 125.902344 158.148438 127.859375 158.8125 C 129.722656 159.453125 131.667969 159.765625 133.628906 159.765625 C 136.285156 159.765625 138.976562 159.1875 141.527344 158.039062 C 141.886719 157.875 142.164062 157.570312 142.292969 157.195312 C 142.417969 156.820312 142.386719 156.410156 142.203125 156.0625 C 139.929688 151.769531 136.265625 148.578125 131.882812 147.082031 C 131.644531 147 131.402344 146.941406 131.160156 146.871094 C 136.421875 144.601562 139.730469 141.382812 141.679688 138.835938 C 141.765625 138.84375 141.847656 138.859375 141.9375 138.859375 C 143.699219 138.859375 145.125 137.433594 145.125 135.675781 C 145.125 133.917969 143.699219 132.492188 141.9375 132.492188 C 140.175781 132.492188 138.746094 133.917969 138.746094 135.675781 C 138.746094 136.28125 138.921875 136.835938 139.21875 137.320312 C 137.53125 139.445312 134.742188 142.109375 130.402344 144.070312 C 132.296875 141.636719 133.335938 138.664062 133.335938 135.527344 C 133.335938 131.796875 131.878906 128.285156 129.238281 125.648438 C 127.070312 123.480469 124.1875 122.285156 121.117188 122.285156 C 118.050781 122.285156 115.164062 123.480469 113 125.648438 C 111.210938 127.433594 110.222656 129.808594 110.222656 132.335938 C 110.222656 134.863281 111.210938 137.238281 113 139.023438 C 116.066406 142.085938 121.058594 142.085938 124.125 139.023438 C 126.6875 136.464844 126.6875 132.292969 124.125 129.734375 C 123.5625 129.175781 122.660156 129.175781 122.097656 129.734375 C 121.535156 130.296875 121.535156 131.199219 122.097656 131.757812 C 123.546875 133.207031 123.546875 135.558594 122.097656 137.003906 C 121.152344 137.949219 119.898438 138.46875 118.558594 138.46875 C 117.21875 138.46875 115.96875 137.949219 115.027344 137.003906 C 113.777344 135.757812 113.089844 134.101562 113.089844 132.339844 C 113.089844 130.578125 113.777344 128.921875 115.027344 127.675781 C 116.65625 126.046875 118.816406 125.152344 121.117188 125.152344 C 123.421875 125.152344 125.585938 126.046875 127.210938 127.675781 C 129.316406 129.777344 130.472656 132.5625 130.472656 135.53125 C 130.472656 138.5 129.3125 141.292969 127.210938 143.390625 C 123.554688 147.039062 117.789062 147.992188 112.523438 145.8125 C 105.664062 142.976562 101.570312 135.972656 101.570312 127.082031 C 101.570312 111.125 110.125 96.476562 123.972656 88.539062 C 124.136719 88.585938 124.308594 88.613281 124.488281 88.613281 C 125.628906 88.613281 126.550781 87.6875 126.550781 86.554688 C 126.550781 85.417969 125.632812 84.492188 124.488281 84.492188 C 123.511719 84.492188 122.691406 85.175781 122.480469 86.089844 C 107.90625 94.472656 98.863281 109.855469 98.710938 126.648438 C 98.691406 126.746094 98.679688 126.847656 98.679688 126.957031 C 98.679688 134.839844 100.011719 142.867188 102.636719 150.8125 C 102.835938 151.414062 103.390625 151.796875 103.996094 151.796875 C 104.140625 151.796875 104.292969 151.773438 104.445312 151.726562 C 105.199219 151.480469 105.605469 150.671875 105.359375 149.917969 C 104.480469 147.269531 103.765625 144.609375 103.191406 141.949219 C 106.164062 145.925781 109.800781 147.78125 111.429688 148.453125 C 112.285156 148.808594 113.15625 149.070312 114.027344 149.289062 C 114.132812 149.332031 114.242188 149.371094 114.363281 149.390625 C 116.023438 149.664062 117.480469 150.566406 118.460938 151.933594 C 119.445312 153.300781 119.832031 154.96875 119.558594 156.625 C 118.992188 160.050781 115.738281 162.378906 112.3125 161.816406 C 110.878906 161.578125 109.597656 160.859375 108.640625 159.796875 C 108.660156 159.6875 108.675781 159.578125 108.675781 159.464844 C 108.675781 158.328125 107.75 157.402344 106.609375 157.402344 C 105.472656 157.402344 104.546875 158.328125 104.546875 159.464844 C 104.546875 160.507812 105.324219 161.355469 106.328125 161.496094 C 107.726562 163.152344 109.664062 164.28125 111.839844 164.640625 "/><path style=" stroke:none;fill-rule:nonzero;fill:rgb(13.729858%,12.159729%,12.548828%);fill-opacity:1;" d="M 259.199219 112.0625 C 256.789062 109.488281 255.320312 106.289062 255.019531 102.921875 C 254.714844 99.554688 255.585938 96.148438 257.496094 93.179688 C 259.902344 95.753906 261.371094 98.953125 261.675781 102.320312 C 261.980469 105.6875 261.105469 109.09375 259.199219 112.0625 M 250.863281 88.613281 C 251.035156 88.613281 251.203125 88.585938 251.359375 88.542969 C 252.769531 89.347656 254.121094 90.222656 255.414062 91.164062 C 252.941406 94.769531 251.78125 98.984375 252.160156 103.179688 C 252.578125 107.78125 254.808594 112.09375 258.445312 115.320312 C 258.707031 115.554688 259.046875 115.679688 259.394531 115.679688 C 259.4375 115.679688 259.480469 115.679688 259.523438 115.675781 C 259.914062 115.640625 260.273438 115.445312 260.519531 115.132812 C 263.523438 111.308594 264.949219 106.671875 264.53125 102.0625 C 264.449219 101.171875 264.28125 100.292969 264.066406 99.425781 C 270.1875 107.09375 273.691406 116.695312 273.746094 126.828125 C 273.726562 126.921875 273.71875 127.019531 273.71875 127.117188 C 273.71875 127.75 273.699219 128.378906 273.675781 129.011719 C 273.125 136.980469 269.148438 143.183594 262.796875 145.808594 C 257.535156 147.984375 251.769531 147.035156 248.109375 143.386719 C 246.007812 141.289062 244.851562 138.496094 244.851562 135.527344 C 244.851562 132.558594 246.007812 129.769531 248.109375 127.671875 C 249.738281 126.046875 251.902344 125.148438 254.203125 125.148438 C 256.503906 125.148438 258.671875 126.042969 260.300781 127.671875 C 261.546875 128.917969 262.238281 130.574219 262.238281 132.335938 C 262.238281 134.097656 261.546875 135.757812 260.300781 137 C 259.355469 137.945312 258.101562 138.464844 256.761719 138.464844 C 255.421875 138.464844 254.171875 137.945312 253.226562 137 C 251.777344 135.550781 251.777344 133.203125 253.226562 131.753906 C 253.789062 131.195312 253.789062 130.292969 253.226562 129.730469 C 252.667969 129.171875 251.761719 129.171875 251.203125 129.730469 C 248.636719 132.292969 248.636719 136.460938 251.203125 139.023438 C 252.6875 140.507812 254.660156 141.324219 256.761719 141.324219 C 258.863281 141.324219 260.839844 140.507812 262.324219 139.023438 C 264.113281 137.238281 265.097656 134.863281 265.097656 132.335938 C 265.097656 129.808594 264.113281 127.433594 262.324219 125.648438 C 260.152344 123.480469 257.269531 122.285156 254.203125 122.285156 C 251.136719 122.285156 248.253906 123.480469 246.082031 125.648438 C 243.4375 128.289062 241.984375 131.796875 241.984375 135.527344 C 241.984375 139.261719 243.441406 142.773438 246.082031 145.410156 C 248.496094 147.816406 251.632812 149.257812 255.003906 149.679688 C 253.324219 151.660156 252.484375 154.335938 252.941406 157.09375 C 253.683594 161.574219 257.582031 164.761719 261.988281 164.761719 C 262.480469 164.761719 262.980469 164.722656 263.484375 164.640625 C 265.664062 164.28125 267.605469 163.152344 269.003906 161.488281 C 269.964844 161.308594 270.6875 160.472656 270.6875 159.46875 C 270.6875 158.332031 269.761719 157.40625 268.625 157.40625 C 267.484375 157.40625 266.5625 158.332031 266.5625 159.46875 C 266.5625 159.609375 266.578125 159.753906 266.605469 159.890625 C 265.664062 160.902344 264.40625 161.585938 263.019531 161.816406 C 259.582031 162.378906 256.335938 160.050781 255.769531 156.625 C 255.496094 154.96875 255.886719 153.300781 256.867188 151.933594 C 257.851562 150.566406 259.304688 149.664062 260.96875 149.390625 C 261.085938 149.371094 261.195312 149.332031 261.304688 149.289062 C 262.175781 149.070312 263.042969 148.808594 263.894531 148.453125 C 265.515625 147.785156 269.132812 145.941406 272.097656 142 C 271.53125 144.636719 270.828125 147.277344 269.964844 149.90625 C 269.71875 150.65625 270.128906 151.464844 270.878906 151.707031 C 271.027344 151.757812 271.179688 151.777344 271.328125 151.777344 C 271.929688 151.777344 272.488281 151.394531 272.691406 150.792969 C 275.039062 143.621094 276.328125 136.390625 276.542969 129.253906 C 276.59375 128.550781 276.621094 127.828125 276.621094 127.074219 C 276.621094 110.128906 267.558594 94.5625 252.875 86.105469 C 252.675781 85.183594 251.851562 84.488281 250.867188 84.488281 C 249.726562 84.488281 248.800781 85.414062 248.800781 86.550781 C 248.800781 87.683594 249.726562 88.609375 250.867188 88.609375 "/><path style=" stroke:none;fill-rule:nonzero;fill:rgb(13.729858%,12.159729%,12.548828%);fill-opacity:1;" d="M 240.410156 118.808594 C 239.8125 121.207031 238.429688 123.367188 236.457031 125.011719 C 235.488281 122.632812 235.28125 120.082031 235.878906 117.679688 C 236.449219 115.394531 237.738281 113.339844 239.558594 111.722656 C 239.65625 111.652344 239.753906 111.585938 239.851562 111.511719 C 240.808594 113.882812 241.011719 116.421875 240.414062 118.8125 M 211.324219 103.195312 C 209.28125 101.785156 207.75 99.734375 206.902344 97.308594 C 209.484375 97.253906 211.941406 97.953125 213.980469 99.359375 C 216.019531 100.765625 217.550781 102.824219 218.398438 105.25 C 215.855469 105.308594 213.363281 104.605469 211.324219 103.199219 M 194.46875 99.269531 C 195.605469 99.269531 196.53125 98.347656 196.53125 97.210938 C 196.53125 97.171875 196.523438 97.140625 196.519531 97.105469 C 205.023438 87.707031 215.03125 82.324219 224.144531 82.324219 C 230.226562 82.324219 235.28125 84.292969 239.167969 88.167969 C 241.859375 90.859375 243.347656 94.4375 243.347656 98.246094 C 243.347656 102.050781 241.859375 105.628906 239.167969 108.320312 C 239.019531 108.46875 238.863281 108.601562 238.707031 108.738281 C 238.394531 108.972656 238.09375 109.21875 237.800781 109.472656 C 235.914062 110.832031 233.664062 111.574219 231.292969 111.574219 C 228.320312 111.574219 225.523438 110.417969 223.421875 108.320312 C 221.792969 106.695312 220.894531 104.535156 220.894531 102.238281 C 220.894531 99.941406 221.792969 97.777344 223.421875 96.15625 C 224.671875 94.910156 226.328125 94.222656 228.09375 94.222656 C 229.859375 94.222656 231.519531 94.910156 232.765625 96.15625 C 234.714844 98.101562 234.714844 101.269531 232.765625 103.214844 C 232.066406 103.914062 231.132812 104.304688 230.140625 104.304688 C 229.625 104.304688 229.128906 104.191406 228.671875 103.996094 C 228.496094 103.039062 227.65625 102.3125 226.648438 102.3125 C 225.511719 102.3125 224.585938 103.238281 224.585938 104.371094 C 224.585938 105.507812 225.507812 106.433594 226.648438 106.433594 C 226.785156 106.433594 226.910156 106.417969 227.039062 106.390625 C 227.980469 106.898438 229.039062 107.164062 230.140625 107.164062 C 231.898438 107.164062 233.554688 106.480469 234.792969 105.238281 C 237.859375 102.175781 237.859375 97.195312 234.792969 94.132812 C 233.003906 92.347656 230.625 91.359375 228.09375 91.359375 C 225.5625 91.359375 223.183594 92.347656 221.394531 94.132812 C 219.878906 95.640625 218.855469 97.503906 218.367188 99.527344 C 217.558594 98.578125 216.640625 97.726562 215.613281 97.015625 C 212.546875 94.894531 208.722656 94.046875 204.851562 94.625 C 204.464844 94.683594 204.113281 94.902344 203.886719 95.226562 C 203.660156 95.554688 203.578125 95.957031 203.664062 96.339844 C 204.484375 100.164062 206.625 103.433594 209.691406 105.554688 C 212.128906 107.238281 215.042969 108.121094 218.078125 108.121094 C 218.589844 108.121094 219.101562 108.089844 219.617188 108.035156 C 220.109375 108.867188 220.695312 109.648438 221.394531 110.34375 C 224.039062 112.988281 227.554688 114.4375 231.292969 114.4375 C 232.261719 114.4375 233.222656 114.335938 234.152344 114.144531 C 233.699219 115.050781 233.339844 116.003906 233.09375 116.992188 C 232.195312 120.605469 232.75 124.476562 234.660156 127.886719 C 234.851562 128.230469 235.179688 128.480469 235.5625 128.578125 C 235.679688 128.605469 235.792969 128.621094 235.910156 128.621094 C 236.1875 128.621094 236.453125 128.542969 236.683594 128.390625 C 239.976562 126.277344 242.285156 123.121094 243.1875 119.503906 C 244.019531 116.171875 243.597656 112.625 242.027344 109.417969 C 244.722656 106.3125 246.210938 102.394531 246.210938 98.242188 C 246.210938 93.671875 244.429688 89.375 241.191406 86.140625 C 236.8125 81.769531 230.914062 79.460938 224.140625 79.460938 C 218.261719 79.460938 206.699219 81.53125 194.402344 95.152344 C 193.292969 95.1875 192.402344 96.089844 192.402344 97.207031 C 192.402344 98.34375 193.320312 99.265625 194.464844 99.265625 "/><path style=" stroke:none;fill-rule:nonzero;fill:rgb(0%,0%,0%);fill-opacity:1;" d="M 143.148438 295.191406 C 141.992188 295.816406 140.53125 296.136719 138.800781 296.136719 C 136.734375 296.136719 134.898438 295.789062 133.324219 295.105469 C 131.964844 294.515625 130.320312 293.394531 128.875 292.078125 L 128.890625 292.074219 C 131.230469 291.378906 133.777344 291.289062 136.324219 291.769531 C 137.390625 291.972656 138.421875 292.289062 139.394531 292.710938 C 140.355469 293.128906 141.257812 293.652344 142.070312 294.261719 C 142.445312 294.539062 142.808594 294.851562 143.148438 295.191406 M 145.191406 280.574219 C 143.917969 279.878906 142.496094 279.21875 140.972656 278.625 C 139.449219 278.03125 137.765625 277.378906 135.914062 276.679688 C 133.875 275.882812 132.527344 274.859375 131.917969 273.640625 C 131.304688 272.421875 131.195312 271.230469 131.589844 270.101562 C 131.984375 268.949219 132.78125 267.960938 133.953125 267.148438 C 135.128906 266.335938 136.53125 265.921875 138.125 265.921875 C 139.894531 265.921875 141.425781 266.195312 142.671875 266.738281 C 143.914062 267.277344 145.199219 268.1875 146.5 269.441406 L 146.640625 269.582031 L 147.417969 268.804688 L 147.285156 268.660156 C 146.066406 267.367188 144.632812 266.410156 143.007812 265.808594 C 141.386719 265.207031 139.746094 264.898438 138.125 264.898438 C 136.171875 264.898438 134.414062 265.28125 132.910156 266.03125 C 131.566406 266.707031 130.507812 267.675781 129.773438 268.914062 C 129.042969 270.152344 128.636719 271.46875 128.574219 272.832031 C 128.511719 274.195312 128.820312 275.535156 129.492188 276.816406 C 130.167969 278.105469 131.277344 279.117188 132.796875 279.832031 C 133.738281 280.28125 134.804688 280.71875 135.960938 281.132812 C 137.136719 281.550781 138.308594 281.988281 139.441406 282.425781 C 140.597656 282.871094 141.71875 283.386719 142.785156 283.953125 C 143.828125 284.515625 144.726562 285.207031 145.445312 286.007812 C 146.195312 286.832031 146.632812 287.828125 146.753906 288.964844 C 146.871094 290.113281 146.648438 291.234375 146.09375 292.300781 C 145.675781 293.101562 145.070312 293.820312 144.28125 294.441406 C 142.992188 293.058594 141.398438 291.96875 139.53125 291.195312 C 137.234375 290.246094 134.832031 289.761719 132.386719 289.761719 C 130.730469 289.761719 129.078125 289.992188 127.484375 290.445312 C 125.882812 290.90625 124.414062 291.609375 123.132812 292.542969 C 122.277344 293.164062 121.507812 293.914062 120.847656 294.777344 L 102.167969 294.777344 L 102.167969 273.679688 L 119.382812 273.679688 L 119.382812 272.101562 L 102.167969 272.101562 L 102.167969 254.160156 L 123.824219 254.160156 L 123.824219 252.582031 L 95.339844 252.582031 L 95.339844 253.472656 L 97.808594 254.519531 L 97.808594 296.359375 L 119.820312 296.359375 C 119.132812 297.691406 118.785156 299.226562 118.785156 300.941406 C 118.824219 302.945312 119.40625 304.746094 120.519531 306.292969 C 121.621094 307.828125 123.066406 309.074219 124.820312 309.988281 C 125.769531 310.480469 126.921875 311.003906 128.230469 311.535156 C 129.558594 312.078125 130.925781 312.644531 132.300781 313.230469 C 133.71875 313.835938 135.113281 314.484375 136.453125 315.164062 C 137.816406 315.855469 139.050781 316.625 140.121094 317.453125 C 141.1875 318.273438 142.074219 319.199219 142.765625 320.207031 C 143.4375 321.199219 143.800781 322.304688 143.835938 323.488281 C 143.917969 325.09375 143.683594 326.53125 143.144531 327.773438 C 142.605469 329.015625 141.855469 330.0625 140.914062 330.90625 C 139.972656 331.746094 138.863281 332.398438 137.617188 332.835938 C 136.371094 333.277344 135.046875 333.542969 133.675781 333.625 C 130.875 333.625 128.140625 333.089844 125.546875 332.035156 C 122.949219 330.980469 120.691406 329.363281 118.839844 327.222656 L 118.707031 327.070312 L 117.65625 327.949219 L 117.789062 328.109375 C 119.8125 330.464844 122.257812 332.296875 125.050781 333.554688 C 127.84375 334.8125 130.746094 335.453125 133.679688 335.453125 C 135.539062 335.453125 137.347656 335.179688 139.050781 334.640625 C 140.75 334.101562 142.265625 333.304688 143.558594 332.261719 C 144.851562 331.21875 145.894531 329.917969 146.667969 328.375 C 147.4375 326.835938 147.828125 325.046875 147.828125 323.046875 C 147.828125 321.257812 147.449219 319.652344 146.691406 318.269531 C 145.941406 316.894531 144.949219 315.65625 143.746094 314.582031 C 142.546875 313.511719 141.175781 312.554688 139.664062 311.75 C 138.175781 310.957031 136.636719 310.195312 135.085938 309.496094 C 133.632812 308.839844 132.191406 308.203125 130.667969 307.554688 C 129.269531 306.960938 128.054688 306.351562 127.054688 305.75 C 125.933594 305.03125 124.996094 304.179688 124.269531 303.214844 C 123.550781 302.257812 123.097656 301.246094 122.921875 300.21875 C 122.746094 299.195312 122.851562 298.132812 123.25 297.0625 C 123.644531 295.988281 124.378906 294.960938 125.417969 294 C 126.050781 293.421875 126.789062 292.9375 127.621094 292.554688 C 129.085938 294.050781 131.125 295.414062 132.980469 296.128906 C 134.96875 296.894531 137.007812 297.285156 139.042969 297.285156 C 141.410156 297.285156 143.558594 296.777344 145.433594 295.78125 C 146.648438 295.109375 147.652344 294.101562 148.414062 292.777344 C 149.164062 291.464844 149.589844 290.046875 149.671875 288.558594 C 149.753906 287.070312 149.457031 285.589844 148.792969 284.152344 C 148.121094 282.699219 146.902344 281.496094 145.183594 280.574219 "/><path style=" stroke:none;fill-rule:nonzero;fill:rgb(0%,0%,0%);fill-opacity:1;" d="M 170.742188 314.460938 L 170.742188 326.613281 C 170.660156 327.476562 170.34375 328.320312 169.792969 329.128906 C 169.226562 329.949219 168.519531 330.6875 167.675781 331.332031 C 166.832031 331.972656 165.878906 332.480469 164.835938 332.839844 C 163.792969 333.199219 162.71875 333.382812 161.628906 333.382812 C 161.054688 333.382812 160.507812 333.335938 160 333.230469 C 159.496094 333.136719 158.996094 332.96875 158.507812 332.726562 C 157.597656 332.292969 156.851562 331.648438 156.277344 330.820312 C 155.699219 329.984375 155.3125 329.0625 155.132812 328.070312 C 154.957031 327.070312 154.976562 326.0625 155.195312 325.066406 C 155.414062 324.074219 155.84375 323.21875 156.472656 322.511719 C 157.433594 321.46875 158.625 320.679688 160.007812 320.164062 C 161.386719 319.644531 162.816406 319.136719 164.257812 318.652344 C 165.6875 318.179688 167.039062 317.582031 168.269531 316.882812 C 169.296875 316.300781 170.128906 315.484375 170.742188 314.457031 M 177.902344 280.292969 C 177.941406 282.496094 177.65625 284.695312 177.046875 286.824219 C 176.4375 288.941406 175.519531 290.753906 174.304688 292.199219 C 173.351562 293.355469 172.246094 294.195312 171.023438 294.699219 C 169.796875 295.199219 168.527344 295.453125 167.246094 295.453125 C 165.519531 295.453125 163.835938 295.035156 162.246094 294.214844 C 160.6875 293.40625 159.445312 292.339844 158.5625 291.035156 L 158.5625 271.265625 C 159.601562 269.683594 160.914062 268.449219 162.46875 267.59375 C 164.035156 266.730469 165.683594 266.292969 167.371094 266.292969 C 168.488281 266.292969 169.59375 266.507812 170.65625 266.925781 C 171.714844 267.34375 172.722656 267.984375 173.644531 268.824219 C 175.054688 270.148438 176.117188 271.851562 176.804688 273.886719 C 177.492188 275.9375 177.863281 278.09375 177.902344 280.292969 M 181.730469 286.042969 C 182.203125 284.347656 182.445312 282.578125 182.445312 280.78125 C 182.445312 278.980469 182.226562 277.214844 181.789062 275.527344 C 181.355469 273.832031 180.671875 272.238281 179.765625 270.785156 C 178.84375 269.332031 177.664062 268.109375 176.253906 267.15625 C 175.09375 266.328125 173.824219 265.726562 172.488281 265.371094 C 171.15625 265.019531 169.8125 264.84375 168.488281 264.84375 C 166.371094 264.84375 164.367188 265.261719 162.539062 266.09375 C 160.910156 266.832031 159.578125 267.863281 158.570312 269.160156 L 158.570312 265.457031 L 152.109375 265.457031 L 152.109375 266.355469 L 154.632812 267.34375 L 154.632812 312.316406 L 158.5625 312.316406 L 158.5625 305.609375 C 159.269531 305.140625 160.023438 304.769531 160.796875 304.515625 C 161.785156 304.199219 162.769531 304.035156 163.730469 304.035156 C 165.394531 304.035156 166.921875 304.5625 168.261719 305.597656 C 169.542969 306.589844 170.347656 308.144531 170.652344 310.21875 L 170.621094 310.21875 L 170.621094 310.425781 C 170.621094 311.65625 170.371094 312.699219 169.878906 313.523438 C 169.382812 314.351562 168.707031 315.054688 167.875 315.613281 C 167.023438 316.175781 166.042969 316.648438 164.960938 317.003906 C 163.851562 317.375 162.675781 317.746094 161.480469 318.109375 C 160.292969 318.472656 159.085938 318.867188 157.894531 319.285156 C 156.71875 319.695312 155.59375 320.21875 154.550781 320.839844 C 153.082031 321.722656 152.027344 322.886719 151.414062 324.292969 C 150.808594 325.695312 150.597656 327.117188 150.785156 328.527344 C 150.972656 329.9375 151.582031 331.25 152.589844 332.421875 C 153.601562 333.601562 155.027344 334.429688 156.832031 334.890625 C 157.828125 335.140625 158.886719 335.269531 159.964844 335.269531 C 162.210938 335.269531 164.378906 334.761719 166.414062 333.765625 C 168.34375 332.828125 169.882812 331.457031 170.996094 329.691406 L 173.417969 334.464844 L 174.675781 334.464844 L 174.675781 311.839844 C 174.675781 310.375 174.375 309.058594 173.789062 307.925781 C 173.203125 306.792969 172.417969 305.820312 171.457031 305.03125 C 170.488281 304.234375 169.367188 303.632812 168.113281 303.238281 C 165.789062 302.5 163.242188 302.429688 160.6875 303.144531 C 159.957031 303.347656 159.246094 303.632812 158.570312 303.988281 L 158.570312 293.25 C 159.820312 294.414062 161.214844 295.3125 162.734375 295.914062 C 164.394531 296.578125 166.125 296.914062 167.867188 296.914062 C 170.777344 296.914062 173.53125 296.050781 176.070312 294.351562 C 177.441406 293.398438 178.621094 292.1875 179.578125 290.753906 C 180.53125 289.328125 181.253906 287.746094 181.738281 286.042969 "/><path style=" stroke:none;fill-rule:nonzero;fill:rgb(0%,0%,0%);fill-opacity:1;" d="M 187.710938 296.359375 L 191.640625 296.359375 L 191.640625 265.457031 L 185.242188 265.457031 L 185.242188 266.351562 L 187.710938 267.339844 Z M 187.710938 296.359375 "/><path style=" stroke:none;fill-rule:nonzero;fill:rgb(0%,0%,0%);fill-opacity:1;" d="M 216.703125 266.375 C 217.519531 266.632812 218.269531 267.046875 218.945312 267.601562 L 219.097656 267.722656 L 219.929688 266.804688 L 219.765625 266.667969 C 219.007812 266.039062 218.125 265.5625 217.136719 265.246094 C 215.097656 264.597656 212.773438 264.632812 210.480469 265.277344 C 209.292969 265.605469 208.144531 266.101562 207.0625 266.746094 C 205.984375 267.394531 204.996094 268.175781 204.121094 269.089844 C 203.453125 269.789062 202.886719 270.582031 202.433594 271.453125 L 202.433594 265.457031 L 195.980469 265.457031 L 195.980469 266.351562 L 198.449219 267.339844 L 198.449219 296.359375 L 202.4375 296.359375 L 202.433594 274.511719 C 202.675781 273.355469 203.191406 272.25 203.96875 271.234375 C 204.757812 270.210938 205.695312 269.289062 206.765625 268.503906 C 207.832031 267.71875 209.019531 267.097656 210.289062 266.65625 C 212.476562 265.890625 214.75 265.765625 216.703125 266.378906 "/><path style=" stroke:none;fill-rule:nonzero;fill:rgb(0%,0%,0%);fill-opacity:1;" d="M 223.933594 296.359375 L 227.859375 296.359375 L 227.859375 265.457031 L 221.402344 265.457031 L 221.402344 266.355469 L 223.933594 267.34375 Z M 223.933594 296.359375 "/><path style=" stroke:none;fill-rule:nonzero;fill:rgb(0%,0%,0%);fill-opacity:1;" d="M 225.929688 262.109375 C 226.636719 262.109375 227.253906 261.859375 227.765625 261.371094 C 228.277344 260.886719 228.539062 260.25 228.539062 259.5 C 228.539062 258.746094 228.28125 258.117188 227.765625 257.628906 C 227.25 257.136719 226.636719 256.890625 225.929688 256.890625 C 225.179688 256.890625 224.546875 257.140625 224.054688 257.632812 C 223.566406 258.121094 223.316406 258.746094 223.316406 259.5 C 223.316406 260.25 223.566406 260.882812 224.054688 261.371094 C 224.539062 261.863281 225.175781 262.113281 225.929688 262.113281 "/><path style=" stroke:none;fill-rule:nonzero;fill:rgb(0%,0%,0%);fill-opacity:1;" d="M 236.582031 288.515625 C 236.582031 291.140625 237.242188 293.257812 238.542969 294.808594 C 239.855469 296.371094 241.855469 297.160156 244.5 297.160156 C 245.414062 297.160156 246.464844 297.003906 247.605469 296.6875 C 248.75 296.375 250.027344 295.796875 251.394531 294.972656 L 251.59375 294.851562 L 250.839844 293.914062 L 250.683594 294.011719 C 248.792969 295.21875 246.984375 295.824219 245.300781 295.824219 C 244.082031 295.824219 243.070312 295.492188 242.285156 294.828125 C 241.738281 294.359375 241.304688 293.691406 240.988281 292.847656 C 240.667969 291.996094 240.527344 290.871094 240.570312 289.496094 L 240.570312 266.789062 L 248.839844 266.789062 L 248.839844 265.457031 L 240.570312 265.457031 L 240.570312 249.5 L 234.113281 249.5 L 234.113281 250.332031 L 236.582031 251.378906 L 236.582031 265.457031 L 232.203125 265.457031 L 232.203125 266.789062 L 236.582031 266.789062 Z M 236.582031 288.515625 "/><path style=" stroke:none;fill-rule:nonzero;fill:rgb(0%,0%,0%);fill-opacity:1;" d="M 276.074219 265.457031 L 276.074219 289.074219 C 276.074219 290.054688 275.800781 290.980469 275.269531 291.828125 C 274.738281 292.675781 274.015625 293.4375 273.132812 294.082031 C 272.253906 294.71875 271.234375 295.21875 270.109375 295.558594 C 267.972656 296.207031 265.769531 296.273438 263.785156 295.59375 C 262.847656 295.273438 262.011719 294.78125 261.300781 294.125 C 260.585938 293.476562 260.011719 292.601562 259.589844 291.523438 C 259.167969 290.449219 258.980469 289.148438 259.019531 287.65625 L 259.019531 265.460938 L 252.566406 265.460938 L 252.566406 266.355469 L 255.035156 267.34375 L 255.035156 287.65625 C 255.035156 289.246094 255.351562 290.65625 255.984375 291.847656 C 256.613281 293.042969 257.460938 294.058594 258.507812 294.875 C 259.550781 295.6875 260.75 296.308594 262.0625 296.726562 C 263.378906 297.140625 264.757812 297.351562 266.164062 297.351562 C 268.238281 297.351562 270.261719 296.898438 272.175781 296.007812 C 273.992188 295.160156 275.472656 293.859375 276.578125 292.136719 L 278.746094 296.296875 L 280.003906 296.382812 L 280.003906 265.457031 Z M 276.074219 265.457031 "/><path style=" stroke:none;fill-rule:nonzero;fill:rgb(0%,0%,0%);fill-opacity:1;" d="M 202.820312 305.058594 C 201.792969 304.242188 200.597656 303.621094 199.265625 303.203125 C 197.929688 302.792969 196.535156 302.578125 195.136719 302.578125 C 193.144531 302.578125 191.195312 302.988281 189.347656 303.796875 C 187.6875 304.519531 186.304688 305.636719 185.222656 307.113281 L 185.222656 303.5 L 178.832031 303.570312 L 178.832031 304.460938 L 181.296875 305.445312 L 181.296875 334.464844 L 185.222656 334.464844 L 185.222656 310.855469 C 185.222656 309.832031 185.492188 308.894531 186.023438 308.070312 C 186.5625 307.238281 187.277344 306.492188 188.164062 305.847656 C 189.042969 305.207031 190.058594 304.710938 191.1875 304.367188 C 193.316406 303.71875 195.519531 303.65625 197.515625 304.332031 C 198.453125 304.65625 199.289062 305.148438 200.003906 305.800781 C 200.722656 306.453125 201.289062 307.320312 201.710938 308.375 C 202.132812 309.4375 202.328125 310.75 202.28125 312.277344 L 202.28125 334.476562 L 206.269531 334.476562 L 206.269531 312.277344 C 206.269531 310.691406 205.949219 309.28125 205.320312 308.085938 C 204.6875 306.890625 203.855469 305.875 202.828125 305.0625 "/><path style=" stroke:none;fill-rule:nonzero;fill:rgb(0%,0%,0%);fill-opacity:1;" d="M 228.53125 332.121094 C 226.640625 333.324219 224.832031 333.933594 223.152344 333.933594 C 221.933594 333.933594 220.921875 333.601562 220.136719 332.9375 C 219.589844 332.472656 219.15625 331.800781 218.839844 330.953125 C 218.519531 330.105469 218.382812 328.980469 218.421875 327.609375 L 218.421875 304.898438 L 226.691406 304.898438 L 226.691406 303.566406 L 218.417969 303.566406 L 218.417969 287.609375 L 211.960938 287.609375 L 211.960938 288.441406 L 214.429688 289.488281 L 214.429688 303.566406 L 210.050781 303.566406 L 210.050781 304.898438 L 214.429688 304.898438 L 214.429688 326.621094 C 214.429688 329.246094 215.089844 331.363281 216.390625 332.917969 C 217.703125 334.480469 219.703125 335.273438 222.34375 335.273438 C 223.261719 335.273438 224.3125 335.113281 225.453125 334.800781 C 226.601562 334.492188 227.875 333.910156 229.242188 333.085938 L 229.441406 332.960938 L 228.6875 332.023438 Z M 228.53125 332.121094 "/><path style=" stroke:none;fill-rule:nonzero;fill:rgb(0%,0%,0%);fill-opacity:1;" d="M 253.644531 318.988281 C 253.667969 321.589844 253.277344 324.03125 252.488281 326.25 C 251.695312 328.46875 250.5 330.335938 248.933594 331.804688 C 247.371094 333.261719 245.386719 333.996094 243.019531 333.996094 C 240.699219 333.996094 238.730469 333.261719 237.175781 331.804688 C 235.605469 330.339844 234.394531 328.46875 233.589844 326.246094 C 232.773438 324.015625 232.375 321.574219 232.398438 318.988281 C 232.417969 316.398438 232.828125 313.953125 233.617188 311.722656 C 234.40625 309.507812 235.601562 307.640625 237.175781 306.167969 C 238.734375 304.714844 240.699219 303.976562 243.019531 303.976562 C 245.339844 303.976562 247.320312 304.714844 248.898438 306.167969 C 250.496094 307.644531 251.691406 309.511719 252.453125 311.722656 C 253.222656 313.957031 253.625 316.402344 253.644531 318.992188 M 251.136719 305.179688 C 248.988281 303.582031 246.257812 302.769531 243.019531 302.769531 C 239.820312 302.769531 237.101562 303.578125 234.941406 305.179688 C 232.78125 306.777344 231.148438 308.804688 230.09375 311.210938 C 229.035156 313.605469 228.492188 316.234375 228.472656 319.023438 C 228.449219 321.808594 228.984375 324.4375 230.058594 326.84375 C 231.140625 329.246094 232.78125 331.273438 234.941406 332.863281 C 237.105469 334.464844 239.824219 335.277344 243.019531 335.277344 C 246.257812 335.277344 248.988281 334.460938 251.136719 332.859375 C 253.273438 331.265625 254.902344 329.238281 255.980469 326.839844 C 257.058594 324.441406 257.601562 321.808594 257.601562 319.019531 C 257.601562 316.226562 257.058594 313.597656 255.980469 311.203125 C 254.902344 308.800781 253.273438 306.773438 251.136719 305.175781 "/><path style=" stroke:none;fill-rule:nonzero;fill:rgb(0%,0%,0%);fill-opacity:1;" d="M 194.21875 254.164062 L 190.683594 254.164062 L 187.589844 260.8125 L 189.554688 260.8125 Z M 194.21875 254.164062 "/></g></svg>