<?xml version="1.0" encoding="UTF-8"?><svg xmlns="http://www.w3.org/2000/svg" xmlns:xlink="http://www.w3.org/1999/xlink" width="375pt" zoomAndPan="magnify" viewBox="0 0 375 374.999991" height="374.999991pt" preserveAspectRatio="xMidYMid meet" version="1.2"><g xml:id="surface1" id="surface1"><path style=" stroke:none;fill-rule:nonzero;fill:rgb(0%,0%,0%);fill-opacity:1;" d="M 109.839844 193.515625 C 106.503906 193.515625 103.566406 192.960938 101.011719 191.855469 C 98.597656 190.804688 95.746094 188.769531 93.449219 186.621094 C 93.628906 186.554688 93.800781 186.484375 93.996094 186.425781 C 96.191406 185.773438 98.460938 185.449219 100.808594 185.449219 C 102.507812 185.449219 104.222656 185.613281 105.957031 185.9375 C 107.695312 186.261719 109.34375 186.769531 110.90625 187.453125 C 112.46875 188.136719 113.910156 188.972656 115.226562 189.949219 C 115.960938 190.496094 116.640625 191.105469 117.273438 191.761719 C 115.328125 192.925781 112.851562 193.515625 109.832031 193.515625 M 119.832031 168.746094 C 117.804688 167.636719 115.582031 166.609375 113.160156 165.660156 C 110.742188 164.710938 108.0625 163.691406 105.117188 162.574219 C 101.78125 161.265625 99.605469 159.605469 98.597656 157.585938 C 97.589844 155.566406 97.402344 153.601562 98.058594 151.710938 C 98.710938 149.820312 100.003906 148.203125 101.933594 146.863281 C 103.863281 145.527344 106.132812 144.859375 108.746094 144.859375 C 111.621094 144.859375 114.066406 145.304688 116.097656 146.179688 C 118.128906 147.058594 120.183594 148.519531 122.273438 150.539062 L 123.058594 149.753906 C 121.164062 147.734375 118.9375 146.246094 116.386719 145.304688 C 113.835938 144.363281 111.296875 143.878906 108.738281 143.878906 C 105.664062 143.878906 102.953125 144.46875 100.601562 145.640625 C 98.503906 146.691406 96.890625 148.171875 95.746094 150.101562 C 94.601562 152.027344 93.980469 154.046875 93.878906 156.167969 C 93.777344 158.289062 94.253906 160.347656 95.300781 162.332031 C 96.34375 164.316406 98.042969 165.867188 100.398438 166.984375 C 101.902344 167.703125 103.566406 168.386719 105.398438 169.039062 C 107.226562 169.695312 109.078125 170.378906 110.933594 171.097656 C 112.792969 171.816406 114.578125 172.628906 116.28125 173.546875 C 117.980469 174.46875 119.417969 175.570312 120.59375 176.878906 C 121.832031 178.242188 122.550781 179.875 122.746094 181.765625 C 122.941406 183.65625 122.582031 185.492188 121.667969 187.253906 C 120.9375 188.664062 119.867188 189.882812 118.46875 190.941406 C 116.417969 188.675781 113.875 186.90625 110.835938 185.640625 C 107.203125 184.140625 103.460938 183.390625 99.605469 183.390625 C 96.992188 183.390625 94.425781 183.75 91.90625 184.464844 C 89.386719 185.175781 87.117188 186.273438 85.09375 187.742188 C 83.679688 188.769531 82.464844 189.976562 81.433594 191.359375 L 51.300781 191.359375 L 51.300781 157.195312 L 78.660156 157.195312 L 78.660156 155.335938 L 51.300781 155.335938 L 51.300781 126.164062 L 85.710938 126.164062 L 85.710938 124.308594 L 41.101562 124.308594 L 41.101562 125.183594 L 45.027344 126.847656 L 45.027344 193.222656 L 80.230469 193.222656 C 80.230469 193.222656 80.222656 193.226562 80.222656 193.226562 C 78.984375 195.414062 78.359375 197.945312 78.359375 200.820312 C 78.421875 203.957031 79.324219 206.726562 81.058594 209.140625 C 82.796875 211.554688 85.035156 213.484375 87.773438 214.914062 C 89.277344 215.699219 91.070312 216.519531 93.167969 217.367188 C 95.261719 218.214844 97.417969 219.113281 99.636719 220.054688 C 101.851562 220.996094 104.0625 222.027344 106.253906 223.140625 C 108.441406 224.253906 110.402344 225.476562 112.132812 226.816406 C 113.859375 228.152344 115.285156 229.640625 116.402344 231.265625 C 117.519531 232.890625 118.101562 234.695312 118.167969 236.652344 C 118.296875 239.261719 117.921875 241.578125 117.042969 243.605469 C 116.164062 245.632812 114.945312 247.328125 113.414062 248.695312 C 111.878906 250.0625 110.09375 251.109375 108.070312 251.832031 C 106.042969 252.550781 103.921875 252.972656 101.703125 253.101562 C 97.1875 253.101562 92.84375 252.253906 88.660156 250.558594 C 84.472656 248.859375 80.878906 246.285156 77.875 242.820312 L 76.703125 243.796875 C 79.90625 247.523438 83.71875 250.378906 88.125 252.371094 C 92.535156 254.363281 97.0625 255.359375 101.710938 255.359375 C 104.648438 255.359375 107.457031 254.9375 110.144531 254.089844 C 112.824219 253.238281 115.171875 251.996094 117.203125 250.363281 C 119.230469 248.730469 120.847656 246.710938 122.054688 244.292969 C 123.265625 241.878906 123.871094 239.109375 123.871094 235.976562 C 123.871094 233.171875 123.28125 230.691406 122.105469 228.535156 C 120.933594 226.375 119.398438 224.457031 117.496094 222.757812 C 115.59375 221.0625 113.464844 219.574219 111.078125 218.300781 C 108.695312 217.027344 106.273438 215.84375 103.820312 214.726562 C 101.363281 213.613281 99.03125 212.59375 96.8125 211.644531 C 94.59375 210.695312 92.65625 209.738281 91.027344 208.753906 C 89.199219 207.582031 87.691406 206.207031 86.511719 204.640625 C 85.332031 203.070312 84.601562 201.441406 84.308594 199.742188 C 84.011719 198.046875 84.191406 196.3125 84.839844 194.550781 C 85.488281 192.789062 86.671875 191.128906 88.378906 189.5625 C 89.488281 188.546875 90.753906 187.742188 92.171875 187.117188 C 94.390625 189.4375 97.632812 191.691406 100.738281 192.882812 C 103.878906 194.089844 107.046875 194.695312 110.25 194.695312 C 113.980469 194.695312 117.308594 193.910156 120.253906 192.351562 C 122.148438 191.308594 123.683594 189.753906 124.863281 187.699219 C 126.046875 185.640625 126.695312 183.457031 126.824219 181.140625 C 126.953125 178.824219 126.5 176.539062 125.457031 174.289062 C 124.410156 172.039062 122.546875 170.191406 119.867188 168.75 "/><path style=" stroke:none;fill-rule:nonzero;fill:rgb(0%,0%,0%);fill-opacity:1;" d="M 170.921875 178.488281 C 169.945312 181.917969 168.476562 184.800781 166.507812 187.152344 C 164.9375 189.050781 163.160156 190.394531 161.164062 191.214844 C 159.167969 192.035156 157.132812 192.4375 155.042969 192.4375 C 152.234375 192.4375 149.53125 191.769531 146.945312 190.429688 C 144.363281 189.09375 142.359375 187.347656 140.917969 185.1875 L 140.917969 153.574219 C 142.617188 150.96875 144.742188 148.957031 147.292969 147.554688 C 149.84375 146.152344 152.484375 145.449219 155.238281 145.449219 C 157.066406 145.449219 158.84375 145.792969 160.582031 146.476562 C 162.316406 147.160156 163.929688 148.1875 165.4375 149.5625 C 167.726562 151.710938 169.425781 154.4375 170.535156 157.734375 C 171.644531 161.035156 172.234375 164.460938 172.300781 168.011719 C 172.363281 171.5625 171.910156 175.058594 170.929688 178.488281 M 160.925781 241.640625 C 160.796875 243.078125 160.269531 244.46875 159.355469 245.804688 C 158.441406 247.140625 157.296875 248.335938 155.921875 249.378906 C 154.546875 250.421875 153.011719 251.242188 151.3125 251.824219 C 149.613281 252.40625 147.875 252.699219 146.113281 252.699219 C 145.195312 252.699219 144.3125 252.621094 143.460938 252.457031 C 142.609375 252.296875 141.796875 252.015625 141.011719 251.628906 C 139.507812 250.910156 138.28125 249.867188 137.339844 248.492188 C 136.394531 247.121094 135.769531 245.625 135.472656 243.992188 C 135.179688 242.359375 135.214844 240.726562 135.574219 239.097656 C 135.933594 237.464844 136.640625 236.0625 137.683594 234.882812 C 139.253906 233.183594 141.171875 231.914062 143.425781 231.0625 C 145.679688 230.214844 147.933594 229.417969 150.1875 228.664062 C 152.441406 227.90625 154.554688 226.988281 156.511719 225.871094 C 158.472656 224.757812 159.949219 223.132812 160.925781 220.976562 Z M 177.746094 177.070312 C 178.492188 174.394531 178.867188 171.636719 178.867188 168.796875 C 178.867188 165.953125 178.53125 163.199219 177.839844 160.527344 C 177.148438 157.851562 176.085938 155.371094 174.65625 153.082031 C 173.222656 150.796875 171.382812 148.90625 169.160156 147.410156 C 167.328125 146.101562 165.363281 145.175781 163.273438 144.621094 C 161.1875 144.066406 159.089844 143.792969 157 143.792969 C 153.667969 143.792969 150.5625 144.449219 147.683594 145.75 C 144.800781 147.050781 142.554688 148.914062 140.917969 151.328125 L 140.917969 144.765625 L 131.3125 144.765625 L 131.3125 145.640625 L 135.328125 147.210938 L 135.328125 218.574219 L 140.917969 218.574219 L 140.917969 208.078125 C 142.101562 207.277344 143.351562 206.644531 144.691406 206.207031 C 146.300781 205.683594 147.882812 205.421875 149.453125 205.421875 C 152.199219 205.421875 154.660156 206.277344 156.859375 207.96875 C 159.054688 209.660156 160.371094 212.304688 160.832031 215.898438 L 160.734375 215.898438 C 160.734375 217.921875 160.320312 219.625 159.507812 220.992188 C 158.695312 222.355469 157.597656 223.5 156.222656 224.421875 C 154.847656 225.339844 153.277344 226.082031 151.511719 226.671875 C 149.75 227.261719 147.898438 227.851562 145.976562 228.433594 C 144.050781 229.015625 142.148438 229.640625 140.292969 230.289062 C 138.433594 230.933594 136.675781 231.753906 135.042969 232.738281 C 132.75 234.113281 131.136719 235.890625 130.1875 238.074219 C 129.238281 240.261719 128.917969 242.445312 129.207031 244.632812 C 129.496094 246.820312 130.433594 248.824219 132.003906 250.652344 C 133.574219 252.476562 135.753906 253.75 138.570312 254.46875 C 140.132812 254.863281 141.769531 255.058594 143.46875 255.058594 C 147.003906 255.058594 150.367188 254.273438 153.574219 252.707031 C 156.777344 251.140625 159.257812 248.859375 161.027344 245.855469 L 165.046875 253.785156 L 166.515625 253.785156 L 166.515625 218.148438 C 166.515625 215.863281 166.054688 213.84375 165.148438 212.082031 C 164.238281 210.320312 163.023438 208.816406 161.515625 207.582031 C 160.011719 206.34375 158.277344 205.410156 156.316406 204.789062 C 154.359375 204.171875 152.335938 203.863281 150.238281 203.863281 C 148.410156 203.863281 146.566406 204.128906 144.699219 204.648438 C 143.367188 205.019531 142.105469 205.550781 140.925781 206.230469 L 140.925781 187.835938 C 143.023438 189.929688 145.371094 191.496094 147.984375 192.539062 C 150.597656 193.582031 153.277344 194.105469 156.027344 194.105469 C 160.601562 194.105469 164.882812 192.769531 168.878906 190.09375 C 171.03125 188.589844 172.867188 186.714844 174.367188 184.464844 C 175.863281 182.210938 176.996094 179.746094 177.75 177.070312 "/><path style=" stroke:none;fill-rule:nonzero;fill:rgb(0%,0%,0%);fill-opacity:1;" d="M 187.890625 193.222656 L 193.480469 193.222656 L 193.480469 144.765625 L 183.96875 144.765625 L 183.96875 145.640625 L 187.890625 147.210938 Z M 187.890625 193.222656 "/><path style=" stroke:none;fill-rule:nonzero;fill:rgb(0%,0%,0%);fill-opacity:1;" d="M 233.734375 145.597656 C 235.074219 146.023438 236.300781 146.699219 237.410156 147.605469 L 238.292969 146.628906 C 237.121094 145.648438 235.757812 144.914062 234.226562 144.425781 C 232.691406 143.9375 231.070312 143.691406 229.371094 143.691406 C 227.542969 143.691406 225.691406 143.960938 223.832031 144.476562 C 221.972656 144.996094 220.1875 145.765625 218.488281 146.777344 C 216.789062 147.792969 215.253906 149.015625 213.878906 150.445312 C 212.503906 151.875 211.421875 153.542969 210.636719 155.441406 L 210.636719 144.765625 L 201.03125 144.765625 L 201.03125 145.640625 L 204.953125 147.210938 L 204.953125 193.222656 L 210.636719 193.222656 L 210.636719 158.765625 C 211.035156 156.867188 211.863281 155.089844 213.136719 153.429688 C 214.410156 151.769531 215.917969 150.292969 217.644531 149.019531 C 219.375 147.75 221.277344 146.757812 223.335938 146.039062 C 225.394531 145.316406 227.433594 144.957031 229.464844 144.957031 C 230.96875 144.957031 232.390625 145.175781 233.734375 145.589844 "/><path style=" stroke:none;fill-rule:nonzero;fill:rgb(0%,0%,0%);fill-opacity:1;" d="M 245.453125 193.222656 L 251.042969 193.222656 L 251.042969 144.765625 L 241.425781 144.765625 L 241.425781 145.640625 L 245.453125 147.210938 Z M 245.453125 193.222656 "/><path style=" stroke:none;fill-rule:nonzero;fill:rgb(0%,0%,0%);fill-opacity:1;" d="M 248.296875 138.796875 C 249.34375 138.796875 250.242188 138.4375 250.992188 137.71875 C 251.742188 137 252.117188 136.085938 252.117188 134.976562 C 252.117188 133.871094 251.742188 132.957031 250.992188 132.238281 C 250.242188 131.519531 249.34375 131.160156 248.296875 131.160156 C 247.191406 131.160156 246.273438 131.519531 245.554688 132.238281 C 244.835938 132.957031 244.480469 133.871094 244.480469 134.976562 C 244.480469 136.085938 244.839844 137.007812 245.554688 137.71875 C 246.269531 138.429688 247.191406 138.796875 248.296875 138.796875 "/><path style=" stroke:none;fill-rule:nonzero;fill:rgb(0%,0%,0%);fill-opacity:1;" d="M 265.546875 181.082031 C 265.546875 185.195312 266.5625 188.460938 268.585938 190.875 C 270.613281 193.292969 273.6875 194.5 277.800781 194.5 C 279.238281 194.5 280.851562 194.257812 282.652344 193.765625 C 284.453125 193.277344 286.433594 192.378906 288.589844 191.078125 L 287.804688 190.101562 C 284.726562 192.054688 281.824219 193.042969 279.074219 193.042969 C 277.050781 193.042969 275.378906 192.488281 274.074219 191.378906 C 273.160156 190.597656 272.441406 189.503906 271.921875 188.09375 C 271.402344 186.683594 271.167969 184.878906 271.238281 182.664062 L 271.238281 146.238281 L 284.375 146.238281 L 284.375 144.765625 L 271.238281 144.765625 L 271.238281 119.410156 L 261.628906 119.410156 L 261.628906 120.195312 L 265.554688 121.855469 L 265.554688 144.765625 L 258.589844 144.765625 L 258.589844 146.230469 L 265.554688 146.230469 Z M 265.546875 181.082031 "/><path style=" stroke:none;fill-rule:nonzero;fill:rgb(0%,0%,0%);fill-opacity:1;" d="M 328.308594 144.765625 L 328.308594 181.96875 C 328.308594 183.601562 327.871094 185.109375 326.992188 186.519531 C 326.113281 187.929688 324.945312 189.144531 323.503906 190.195312 C 322.066406 191.242188 320.429688 192.035156 318.609375 192.59375 C 316.773438 193.148438 314.941406 193.421875 313.113281 193.421875 C 311.476562 193.421875 309.894531 193.164062 308.359375 192.636719 C 306.824219 192.113281 305.464844 191.324219 304.289062 190.246094 C 303.117188 189.164062 302.179688 187.75 301.496094 185.988281 C 300.8125 184.226562 300.5 182.140625 300.566406 179.722656 L 300.566406 144.765625 L 290.949219 144.765625 L 290.949219 145.640625 L 294.875 147.210938 L 294.875 179.710938 C 294.875 182.191406 295.367188 184.363281 296.34375 186.21875 C 297.324219 188.074219 298.628906 189.648438 300.265625 190.921875 C 301.898438 192.191406 303.75 193.15625 305.808594 193.8125 C 307.871094 194.464844 310.007812 194.789062 312.226562 194.789062 C 315.496094 194.789062 318.636719 194.082031 321.640625 192.683594 C 324.644531 191.28125 327.035156 189.109375 328.800781 186.175781 L 332.429688 193.128906 L 333.898438 193.226562 L 333.898438 144.765625 Z M 328.308594 144.765625 "/><path style=" stroke:none;fill-rule:nonzero;fill:rgb(0%,0%,0%);fill-opacity:1;" d="M 211.371094 207.625 C 209.765625 206.351562 207.921875 205.386719 205.832031 204.734375 C 203.746094 204.078125 201.585938 203.753906 199.367188 203.753906 C 196.226562 203.753906 193.199219 204.394531 190.289062 205.660156 C 187.382812 206.925781 185.046875 208.945312 183.28125 211.679688 L 183.28125 205.214844 L 173.777344 205.316406 L 173.777344 206.191406 L 177.695312 207.761719 L 177.695312 253.773438 L 183.28125 253.773438 L 183.28125 216.582031 C 183.28125 214.886719 183.722656 213.355469 184.609375 211.980469 C 185.492188 210.609375 186.652344 209.40625 188.085938 208.355469 C 189.519531 207.308594 191.164062 206.515625 192.992188 205.957031 C 194.820312 205.394531 196.652344 205.128906 198.480469 205.128906 C 200.113281 205.128906 201.699219 205.386719 203.242188 205.90625 C 204.78125 206.421875 206.136719 207.226562 207.308594 208.304688 C 208.484375 209.386719 209.421875 210.792969 210.105469 212.519531 C 210.789062 214.246094 211.105469 216.351562 211.035156 218.832031 L 211.035156 253.777344 L 216.722656 253.777344 L 216.722656 218.832031 C 216.722656 216.351562 216.234375 214.179688 215.253906 212.324219 C 214.273438 210.472656 212.984375 208.894531 211.378906 207.625 "/><path style=" stroke:none;fill-rule:nonzero;fill:rgb(0%,0%,0%);fill-opacity:1;" d="M 243.875 253.585938 C 241.851562 253.585938 240.183594 253.03125 238.878906 251.921875 C 237.964844 251.140625 237.242188 250.046875 236.722656 248.644531 C 236.207031 247.242188 235.96875 245.429688 236.039062 243.214844 L 236.039062 206.789062 L 249.175781 206.789062 L 249.175781 205.324219 L 236.03125 205.324219 L 236.03125 179.96875 L 226.425781 179.96875 L 226.425781 180.753906 L 230.351562 182.414062 L 230.351562 205.324219 L 223.386719 205.324219 L 223.386719 206.789062 L 230.351562 206.789062 L 230.351562 241.632812 C 230.351562 245.746094 231.367188 249.011719 233.390625 251.425781 C 235.414062 253.84375 238.488281 255.050781 242.601562 255.050781 C 244.042969 255.050781 245.65625 254.808594 247.457031 254.316406 C 249.257812 253.828125 251.238281 252.929688 253.390625 251.621094 L 252.605469 250.644531 C 249.53125 252.601562 246.628906 253.585938 243.875 253.585938 "/><path style=" stroke:none;fill-rule:nonzero;fill:rgb(0%,0%,0%);fill-opacity:1;" d="M 290.800781 241.152344 C 289.523438 244.742188 287.609375 247.730469 285.066406 250.113281 C 282.511719 252.5 279.3125 253.683594 275.453125 253.683594 C 271.664062 253.683594 268.496094 252.5 265.945312 250.113281 C 263.394531 247.722656 261.464844 244.746094 260.160156 241.152344 C 258.855469 237.558594 258.214844 233.679688 258.253906 229.503906 C 258.289062 225.328125 258.9375 221.445312 260.210938 217.855469 C 261.484375 214.265625 263.394531 211.285156 265.945312 208.894531 C 268.492188 206.507812 271.664062 205.324219 275.453125 205.324219 C 279.238281 205.324219 282.429688 206.515625 285.015625 208.894531 C 287.59375 211.285156 289.511719 214.261719 290.75 217.855469 C 291.988281 221.449219 292.628906 225.328125 292.65625 229.503906 C 292.6875 233.679688 292.074219 237.566406 290.800781 241.152344 M 288.148438 207.816406 C 284.777344 205.308594 280.542969 204.050781 275.445312 204.050781 C 270.410156 204.050781 266.195312 205.308594 262.796875 207.816406 C 259.398438 210.328125 256.863281 213.484375 255.199219 217.265625 C 253.535156 221.046875 252.683594 225.148438 252.648438 229.554688 C 252.613281 233.960938 253.449219 238.0625 255.148438 241.84375 C 256.847656 245.625 259.398438 248.773438 262.796875 251.285156 C 266.195312 253.792969 270.410156 255.050781 275.445312 255.050781 C 280.542969 255.050781 284.777344 253.792969 288.148438 251.285156 C 291.519531 248.773438 294.046875 245.625 295.746094 241.84375 C 297.449219 238.0625 298.296875 233.960938 298.296875 229.554688 C 298.296875 225.148438 297.449219 221.054688 295.746094 217.265625 C 294.046875 213.476562 291.511719 210.335938 288.148438 207.816406 "/><path style=" stroke:none;fill-rule:nonzero;fill:rgb(0%,0%,0%);fill-opacity:1;" d="M 187.699219 137.128906 L 189.363281 138.105469 L 197.277344 126.824219 L 192.496094 126.824219 Z M 187.699219 137.128906 "/></g></svg>