<?xml version="1.0" encoding="UTF-8"?><svg xmlns="http://www.w3.org/2000/svg" xmlns:xlink="http://www.w3.org/1999/xlink" width="375pt" zoomAndPan="magnify" viewBox="0 0 375 374.999991" height="374.999991pt" preserveAspectRatio="xMidYMid meet" version="1.2"><g xml:id="surface1" id="surface1"><path style=" stroke:none;fill-rule:nonzero;fill:rgb(13.729858%,12.159729%,12.548828%);fill-opacity:1;" d="M 265.648438 178.242188 C 254.53125 181.746094 243.96875 183.605469 235.105469 183.605469 C 228.941406 183.605469 223.726562 182.675781 220.03125 180.933594 C 215.488281 178.777344 213.183594 175.46875 213.183594 171.101562 C 213.183594 168.617188 214.816406 166.128906 217.671875 164.171875 L 301.949219 164.171875 C 292.179688 168.417969 277.519531 174.5 265.640625 178.25 M 134.609375 178.203125 C 134.335938 178.257812 134.054688 178.308594 133.785156 178.371094 C 125.253906 180.289062 117.726562 185.527344 112.589844 193.121094 C 112.074219 193.882812 111.894531 194.828125 112.097656 195.726562 C 112.300781 196.625 112.859375 197.40625 113.652344 197.871094 C 119.320312 201.21875 125.570312 202.941406 131.804688 202.941406 C 134.261719 202.941406 136.714844 202.671875 139.125 202.132812 C 147.089844 200.34375 154.179688 195.660156 159.261719 188.867188 C 163.972656 190.339844 168.066406 191.390625 171.074219 192.160156 C 172.246094 192.460938 173.234375 192.710938 174.011719 192.929688 C 174.84375 193.164062 175.941406 193.4375 177.261719 193.761719 C 192.277344 197.496094 237.96875 208.84375 237.96875 250.941406 C 237.96875 266.785156 230.066406 281.082031 217.460938 291.085938 C 218.042969 289.914062 218.566406 288.707031 219.003906 287.46875 C 221.921875 279.230469 221.496094 270.066406 217.808594 261.671875 C 217.4375 260.824219 216.738281 260.175781 215.867188 259.863281 C 215 259.554688 214.046875 259.621094 213.222656 260.046875 C 205.070312 264.246094 198.972656 271.101562 196.054688 279.335938 C 193.457031 286.664062 193.515625 294.722656 196.152344 302.324219 C 189.261719 304.507812 181.820312 305.699219 174.050781 305.699219 C 141.429688 305.699219 114.457031 284.648438 110.617188 257.566406 L 166.59375 257.566406 C 174.746094 257.582031 181.375 264.214844 181.375 272.371094 C 181.375 280.53125 174.730469 287.171875 166.570312 287.171875 C 162.234375 287.171875 158.128906 285.277344 155.3125 281.972656 C 154.117188 280.566406 152.007812 280.402344 150.605469 281.601562 C 149.199219 282.804688 149.039062 284.90625 150.234375 286.3125 C 154.320312 291.101562 160.277344 293.84375 166.570312 293.84375 C 178.410156 293.84375 188.046875 284.210938 188.046875 272.371094 C 188.046875 266.632812 185.769531 261.429688 182.089844 257.566406 L 197.386719 257.566406 C 209.300781 257.566406 218.988281 247.933594 218.988281 236.09375 C 218.988281 224.25 209.363281 214.601562 197.519531 214.601562 C 191.226562 214.601562 185.273438 217.351562 181.175781 222.144531 C 179.984375 223.542969 180.148438 225.648438 181.546875 226.851562 C 182.945312 228.050781 185.054688 227.886719 186.253906 226.480469 C 189.074219 223.179688 193.175781 221.28125 197.511719 221.28125 C 205.675781 221.28125 212.316406 227.925781 212.316406 236.085938 C 212.316406 244.246094 205.621094 250.886719 197.390625 250.886719 L 166.59375 250.886719 C 166.585938 250.886719 166.578125 250.886719 166.570312 250.886719 C 166.5625 250.886719 166.5625 250.886719 166.5625 250.886719 L 110.300781 250.886719 C 110.3125 250.199219 110.292969 249.511719 110.238281 248.824219 C 111.296875 233.101562 124.414062 220.625 140.402344 220.625 C 144.105469 220.625 147.6875 221.296875 151.050781 222.566406 C 150.816406 223.449219 150.679688 224.363281 150.679688 225.316406 C 150.679688 231.292969 155.523438 236.136719 161.5 236.136719 C 167.476562 236.136719 172.320312 231.292969 172.320312 225.316406 C 172.320312 219.339844 167.476562 214.496094 161.5 214.496094 C 158.960938 214.496094 156.625 215.378906 154.773438 216.847656 C 150.277344 214.941406 145.421875 213.945312 140.394531 213.945312 C 124.761719 213.945312 111.371094 223.714844 106 237.476562 C 105.363281 236.613281 104.667969 235.796875 103.898438 235.035156 C 100.242188 231.378906 95.59375 229.300781 90.8125 228.785156 L 90.8125 164.164062 L 117 164.164062 C 122.191406 169.898438 128.304688 174.5 134.609375 178.203125 M 152.46875 186.644531 C 148.488281 191.191406 143.34375 194.328125 137.660156 195.605469 C 131.976562 196.882812 125.984375 196.257812 120.441406 193.84375 C 124.414062 189.296875 129.566406 186.160156 135.25 184.882812 C 140.933594 183.605469 146.933594 184.234375 152.46875 186.644531 M 257.269531 239.167969 C 263.382812 234.074219 271.140625 231.21875 279.421875 230.945312 C 277.65625 239.046875 273.4375 246.15625 267.324219 251.242188 C 261.210938 256.328125 253.453125 259.191406 245.171875 259.464844 C 246.9375 251.363281 251.15625 244.253906 257.269531 239.160156 M 202.347656 281.550781 C 204.292969 276.066406 208.015625 271.320312 213.011719 267.910156 C 214.742188 273.699219 214.660156 279.730469 212.707031 285.214844 C 210.757812 290.699219 207.035156 295.445312 202.046875 298.855469 C 200.316406 293.066406 200.398438 287.035156 202.347656 281.550781 M 90.820312 235.527344 C 93.886719 236 96.835938 237.398438 99.183594 239.757812 C 101.683594 242.257812 103.1875 245.515625 103.527344 248.976562 C 103.5 249.566406 103.484375 250.160156 103.484375 250.757812 C 103.484375 250.804688 103.46875 250.84375 103.46875 250.886719 L 90.820312 250.886719 Z M 111.371094 93.144531 C 105.410156 102.5 102.214844 113.28125 102.214844 124.667969 C 102.214844 138.082031 105.960938 148.832031 111.773438 157.492188 L 90.820312 157.492188 L 90.820312 95.871094 C 90.820312 94.753906 90.269531 93.75 89.40625 93.144531 Z M 127.089844 85.007812 C 139.90625 73.761719 157.828125 67.816406 178.933594 67.816406 C 190.441406 67.816406 200.300781 69.570312 208.667969 72.265625 C 205.789062 80.515625 197.945312 86.464844 188.71875 86.464844 C 188.566406 86.464844 188.421875 86.488281 188.28125 86.507812 C 187.757812 86.480469 187.230469 86.464844 186.699219 86.464844 L 125.511719 86.464844 C 126.03125 85.972656 126.550781 85.472656 127.097656 85 M 213.183594 150.546875 C 213.183594 146.179688 215.488281 142.871094 220.039062 140.71875 C 223.792969 138.941406 228.949219 138.066406 235.039062 138.066406 C 243.789062 138.066406 254.457031 139.871094 265.65625 143.40625 C 277.527344 147.15625 292.183594 153.238281 301.964844 157.484375 L 217.664062 157.484375 C 214.808594 155.527344 213.175781 153.042969 213.175781 150.554688 M 69.753906 204.816406 C 66.214844 200.191406 64.28125 194.480469 64.144531 188.433594 C 69.941406 190.144531 74.945312 193.511719 78.480469 198.136719 C 82.015625 202.761719 83.949219 208.472656 84.078125 214.519531 C 78.285156 212.8125 73.28125 209.441406 69.746094 204.816406 M 260.078125 99.203125 C 264.605469 104.417969 267.265625 111.058594 267.742188 118.222656 C 260.714844 116.75 254.511719 113.191406 249.984375 107.976562 C 245.457031 102.761719 242.796875 96.121094 242.320312 88.957031 C 249.347656 90.429688 255.554688 93.988281 260.078125 99.203125 M 156.953125 112.527344 C 150.890625 112.652344 145.125 110.929688 140.367188 107.578125 C 135.605469 104.222656 132.039062 99.363281 130.097656 93.636719 C 136.117188 93.523438 141.921875 95.230469 146.683594 98.585938 C 151.441406 101.9375 155.007812 106.796875 156.945312 112.527344 M 318.550781 160.207031 C 318.519531 159.984375 318.480469 159.773438 318.429688 159.59375 C 318.375 159.410156 318.316406 159.222656 318.214844 158.988281 C 318.140625 158.808594 318.058594 158.632812 317.984375 158.496094 C 317.882812 158.324219 317.777344 158.15625 317.648438 157.984375 C 317.558594 157.847656 317.460938 157.71875 317.363281 157.613281 C 317.308594 157.554688 317.25 157.492188 317.1875 157.433594 C 317.074219 157.3125 316.953125 157.207031 316.832031 157.101562 C 316.714844 156.992188 316.59375 156.886719 316.457031 156.789062 C 316.320312 156.691406 316.183594 156.609375 316.03125 156.519531 C 315.925781 156.449219 315.820312 156.390625 315.691406 156.320312 C 315.609375 156.277344 315.527344 156.230469 315.445312 156.191406 C 314.300781 155.664062 287.3125 143.242188 267.644531 137.039062 C 246.796875 130.464844 227.917969 129.578125 217.160156 134.6875 C 210.285156 137.945312 206.488281 143.582031 206.488281 150.554688 C 206.488281 152.980469 207.199219 155.332031 208.507812 157.484375 L 139.964844 157.484375 C 140.628906 157 141.289062 156.503906 141.914062 155.972656 C 148.609375 150.351562 152.886719 142.242188 153.964844 133.140625 C 154.1875 131.308594 152.878906 129.648438 151.042969 129.429688 C 149.207031 129.210938 147.550781 130.515625 147.332031 132.351562 C 146.457031 139.765625 143.003906 146.339844 137.613281 150.859375 C 132.800781 154.902344 126.652344 157.121094 120.078125 157.257812 C 113.382812 148.960938 108.886719 138.328125 108.886719 124.660156 C 108.886719 113.09375 112.597656 102.210938 119.488281 93.136719 L 122.992188 93.136719 C 125.109375 101.335938 129.863281 108.347656 136.519531 113.03125 C 142.269531 117.074219 149.183594 119.199219 156.390625 119.199219 C 158.144531 119.199219 159.90625 119.078125 161.679688 118.820312 C 162.597656 118.691406 163.410156 118.183594 163.941406 117.4375 C 164.46875 116.6875 164.667969 115.746094 164.484375 114.84375 C 162.632812 105.875 157.691406 98.167969 150.558594 93.136719 L 186.699219 93.136719 C 199 93.136719 209.007812 103.058594 209.007812 115.253906 C 209.007812 127.449219 199.085938 137.371094 186.890625 137.371094 C 178.773438 137.371094 171.316406 132.933594 167.441406 125.792969 C 166.5625 124.175781 164.53125 123.574219 162.914062 124.457031 C 161.296875 125.339844 160.691406 127.367188 161.574219 128.984375 C 166.625 138.277344 176.324219 144.050781 186.898438 144.050781 C 202.773438 144.050781 215.695312 131.136719 215.695312 115.253906 C 215.695312 104.554688 209.792969 95.214844 201.050781 90.25 C 207.503906 87.046875 212.535156 81.417969 214.960938 74.5625 C 223.695312 78.167969 230.496094 82.738281 235.574219 87.03125 C 235.671875 96.527344 238.960938 105.453125 244.945312 112.34375 C 251.375 119.742188 260.554688 124.390625 270.792969 125.425781 C 270.90625 125.4375 271.019531 125.4375 271.125 125.4375 C 271.925781 125.4375 272.707031 125.152344 273.316406 124.625 C 274.011719 124.019531 274.429688 123.15625 274.464844 122.234375 C 274.875 111.953125 271.550781 102.210938 265.117188 94.804688 C 258.78125 87.515625 249.765625 82.898438 239.699219 81.78125 C 233.988281 76.972656 226.300781 71.875 216.410156 67.945312 C 216.496094 67.074219 216.539062 66.199219 216.539062 65.3125 C 216.539062 49.984375 204.066406 37.5 188.71875 37.5 C 180.566406 37.5 172.851562 41.058594 167.554688 47.261719 C 166.359375 48.667969 166.519531 50.777344 167.921875 51.96875 C 169.328125 53.164062 171.429688 52.996094 172.628906 51.601562 C 176.65625 46.886719 182.523438 44.179688 188.71875 44.179688 C 200.378906 44.179688 209.859375 53.664062 209.859375 65.320312 C 209.859375 65.429688 209.84375 65.527344 209.84375 65.632812 C 201.066406 62.894531 190.804688 61.136719 178.925781 61.136719 C 156.179688 61.136719 136.730469 67.65625 122.675781 79.988281 C 120.363281 82.019531 118.242188 84.191406 116.300781 86.472656 L 61.628906 86.472656 C 59.785156 86.472656 58.289062 87.96875 58.289062 89.8125 L 58.289062 91.90625 C 58.289062 93.550781 59.492188 94.957031 61.125 95.207031 L 84.148438 98.742188 L 84.148438 194.570312 C 84.027344 194.414062 83.914062 194.246094 83.792969 194.085938 C 78.480469 187.144531 70.574219 182.496094 61.523438 181.007812 C 60.609375 180.863281 59.6875 181.089844 58.953125 181.648438 C 58.222656 182.207031 57.753906 183.046875 57.664062 183.960938 C 56.726562 193.082031 59.136719 201.929688 64.449219 208.875 C 69.246094 215.152344 76.175781 219.542969 84.148438 221.433594 L 84.148438 229.09375 C 80.074219 229.910156 76.191406 231.890625 73.039062 235.042969 C 68.914062 239.167969 66.648438 244.644531 66.648438 250.480469 C 66.648438 256.3125 68.914062 261.789062 73.039062 265.917969 C 73.6875 266.566406 74.542969 266.898438 75.398438 266.898438 C 76.25 266.898438 77.105469 266.574219 77.753906 265.917969 C 79.0625 264.609375 79.0625 262.5 77.753906 261.195312 C 74.890625 258.332031 73.320312 254.53125 73.320312 250.480469 C 73.320312 246.429688 74.898438 242.628906 77.753906 239.765625 C 79.597656 237.921875 81.804688 236.652344 84.140625 235.964844 L 84.140625 254.234375 C 84.140625 256.078125 85.636719 257.574219 87.480469 257.574219 L 103.890625 257.574219 C 107.707031 288.34375 137.722656 312.378906 174.066406 312.378906 C 177 312.378906 179.890625 312.207031 182.734375 311.902344 C 179.152344 315.152344 176.324219 318.46875 174.121094 321.589844 C 173.816406 321.554688 173.507812 321.53125 173.191406 321.53125 C 168.6875 321.53125 165.015625 325.195312 165.015625 329.707031 C 165.015625 334.21875 168.679688 337.882812 173.191406 337.882812 C 177.699219 337.882812 181.367188 334.21875 181.367188 329.707031 C 181.367188 327.960938 180.804688 326.34375 179.878906 325.011719 C 183.957031 319.375 190.3125 313.058594 200.03125 308.058594 C 220.613281 300.945312 236.472656 285.652344 242.269531 266.800781 C 243.652344 266.898438 245.027344 267.117188 246.371094 267.464844 C 251.5625 268.796875 256.097656 271.855469 259.503906 276.3125 C 260.164062 277.175781 261.160156 277.628906 262.164062 277.628906 C 262.875 277.628906 263.585938 277.402344 264.191406 276.941406 C 265.65625 275.824219 265.933594 273.730469 264.816406 272.265625 C 262.382812 269.074219 259.460938 266.46875 256.203125 264.472656 C 261.871094 262.863281 267.113281 260.144531 271.625 256.386719 C 279.96875 249.445312 285.316406 239.394531 286.707031 228.082031 C 286.820312 227.167969 286.546875 226.246094 285.960938 225.542969 C 285.371094 224.839844 284.515625 224.402344 283.59375 224.351562 C 272.214844 223.664062 261.363281 227.109375 253.023438 234.050781 C 249.582031 236.914062 246.667969 240.308594 244.308594 244.101562 C 239.796875 202.421875 194.355469 191.125 178.894531 187.285156 C 177.65625 186.976562 176.621094 186.71875 175.835938 186.5 C 175.019531 186.273438 173.976562 186.007812 172.75 185.691406 C 163.253906 183.265625 142.074219 177.839844 126.710938 164.179688 L 162.566406 164.179688 C 162.785156 164.226562 163.003906 164.253906 163.230469 164.261719 C 169.851562 164.390625 175.910156 166.605469 180.746094 170.671875 C 183.707031 173.15625 186.066406 176.203125 187.757812 179.730469 C 188.332031 180.925781 189.527344 181.628906 190.773438 181.628906 C 191.257812 181.628906 191.746094 181.519531 192.214844 181.292969 C 193.878906 180.492188 194.582031 178.507812 193.78125 176.835938 C 191.671875 172.445312 188.734375 168.652344 185.046875 165.554688 C 184.472656 165.070312 183.882812 164.617188 183.285156 164.179688 L 208.546875 164.179688 C 207.230469 166.332031 206.527344 168.691406 206.527344 171.109375 C 206.527344 178.082031 210.3125 183.710938 217.191406 186.976562 C 221.835938 189.183594 227.875 190.292969 235.121094 190.292969 C 244.664062 190.292969 255.914062 188.328125 267.671875 184.625 C 287.34375 178.421875 314.332031 166 315.445312 165.488281 C 315.511719 165.457031 315.585938 165.417969 315.664062 165.382812 C 315.804688 165.304688 315.941406 165.230469 316.101562 165.125 C 316.230469 165.046875 316.359375 164.972656 316.449219 164.898438 C 316.59375 164.800781 316.71875 164.6875 316.871094 164.558594 C 316.984375 164.460938 317.097656 164.359375 317.195312 164.253906 C 317.25 164.203125 317.308594 164.140625 317.363281 164.089844 C 317.476562 163.960938 317.582031 163.824219 317.671875 163.695312 C 317.792969 163.53125 317.90625 163.363281 317.988281 163.21875 C 318.097656 163.039062 318.179688 162.863281 318.253906 162.667969 L 316.507812 161.941406 C 316.507812 161.941406 316.507812 161.9375 316.515625 161.9375 L 318.269531 162.644531 C 318.34375 162.464844 318.414062 162.277344 318.457031 162.117188 C 318.519531 161.90625 318.558594 161.695312 318.585938 161.460938 C 318.617188 161.253906 318.632812 161.050781 318.632812 160.847656 C 318.632812 160.644531 318.617188 160.441406 318.585938 160.21875 "/></g></svg>