<?xml version="1.0" encoding="UTF-8"?><svg xmlns="http://www.w3.org/2000/svg" xmlns:xlink="http://www.w3.org/1999/xlink" width="375pt" zoomAndPan="magnify" viewBox="0 0 375 374.999991" height="374.999991pt" preserveAspectRatio="xMidYMid meet" version="1.2"><g xml:id="surface1" id="surface1"><path style=" stroke:none;fill-rule:nonzero;fill:rgb(13.729858%,12.159729%,12.548828%);fill-opacity:1;" d="M 119.566406 128.4375 C 116.804688 131.851562 112.925781 134.226562 108.472656 135.269531 C 108.5625 130.699219 110.078125 126.398438 112.835938 122.984375 C 115.589844 119.578125 119.46875 117.195312 123.902344 116.152344 C 123.902344 116.242188 123.910156 116.332031 123.910156 116.421875 C 123.765625 120.886719 122.261719 125.085938 119.558594 128.429688 M 169.34375 122.96875 C 173.636719 122.074219 178.148438 122.699219 182.246094 124.714844 C 179.285156 128.195312 175.386719 130.5625 171.097656 131.449219 C 166.804688 132.339844 162.292969 131.714844 158.195312 129.703125 C 161.152344 126.222656 165.050781 123.855469 169.34375 122.96875 M 109.949219 120.640625 C 106.179688 125.304688 104.359375 131.332031 104.828125 137.617188 C 104.863281 138.125 105.113281 138.597656 105.507812 138.921875 C 105.84375 139.1875 106.253906 139.332031 106.679688 139.332031 C 106.761719 139.332031 106.847656 139.328125 106.929688 139.316406 C 113.164062 138.464844 118.671875 135.425781 122.441406 130.761719 C 123.828125 129.050781 124.9375 127.15625 125.78125 125.132812 C 126.855469 127.59375 128.375 129.898438 130.378906 131.90625 C 133.910156 135.445312 138.550781 137.210938 143.183594 137.210938 C 147.578125 137.210938 151.964844 135.605469 155.421875 132.425781 C 159.128906 134.484375 163.171875 135.5625 167.21875 135.5625 C 168.773438 135.5625 170.328125 135.402344 171.855469 135.089844 C 177.722656 133.875 182.941406 130.359375 186.558594 125.207031 C 186.851562 124.785156 186.957031 124.265625 186.855469 123.761719 C 186.753906 123.261719 186.445312 122.824219 186.007812 122.554688 C 180.644531 119.265625 174.460938 118.121094 168.59375 119.335938 C 165.605469 119.957031 162.785156 121.179688 160.253906 122.90625 C 160.691406 118.609375 159.269531 114.15625 155.996094 110.871094 C 153.683594 108.554688 150.601562 107.277344 147.328125 107.277344 C 144.054688 107.277344 140.976562 108.554688 138.660156 110.871094 C 136.738281 112.796875 135.683594 115.351562 135.683594 118.074219 C 135.683594 120.796875 136.738281 123.351562 138.660156 125.277344 C 141.375 127.992188 145.476562 128.488281 148.699219 126.761719 C 148.875 126.796875 149.054688 126.816406 149.246094 126.816406 C 150.71875 126.816406 151.914062 125.621094 151.914062 124.148438 C 151.914062 122.675781 150.71875 121.476562 149.246094 121.476562 C 147.949219 121.476562 146.871094 122.402344 146.628906 123.628906 C 144.867188 124.414062 142.726562 124.097656 141.28125 122.648438 C 140.0625 121.425781 139.390625 119.800781 139.390625 118.070312 C 139.390625 116.339844 140.0625 114.710938 141.28125 113.488281 C 144.617188 110.152344 150.039062 110.152344 153.375 113.488281 C 157.722656 117.84375 157.722656 124.921875 153.375 129.277344 C 147.757812 134.898438 138.625 134.898438 133.011719 129.277344 C 129.46875 125.730469 127.679688 121.082031 127.621094 116.421875 C 127.625 116.214844 127.625 116.007812 127.632812 115.800781 C 127.730469 111.199219 129.511719 106.628906 133.011719 103.125 C 138.035156 98.09375 144.574219 95.542969 152.445312 95.542969 C 164.183594 95.542969 177.074219 102.464844 188.042969 114.566406 C 188.035156 114.664062 188.015625 114.757812 188.015625 114.855469 C 188.015625 116.328125 189.207031 117.523438 190.679688 117.523438 C 192.152344 117.523438 193.347656 116.328125 193.347656 114.855469 C 193.347656 113.460938 192.28125 112.332031 190.925781 112.210938 C 175.015625 94.527344 160.050781 91.832031 152.445312 91.832031 C 143.683594 91.832031 136.050781 94.828125 130.390625 100.496094 C 127.0625 103.832031 125.027344 107.972656 124.261719 112.296875 C 118.53125 113.359375 113.484375 116.273438 109.960938 120.632812 "/><path style=" stroke:none;fill-rule:nonzero;fill:rgb(13.729858%,12.159729%,12.548828%);fill-opacity:1;" d="M 261.046875 264.480469 C 233.082031 288.703125 204.773438 303.761719 199.632812 306.410156 C 194.5 303.765625 166.183594 288.710938 138.222656 264.480469 C 123.425781 251.65625 112.03125 239.171875 103.285156 227.253906 C 103.253906 227.203125 103.226562 227.148438 103.191406 227.097656 C 102.589844 226.292969 102.292969 225.285156 102.351562 224.257812 C 102.480469 221.933594 104.371094 220.15625 106.582031 220.265625 C 107.738281 220.332031 108.8125 220.921875 109.519531 221.886719 C 109.523438 221.898438 109.535156 221.902344 109.539062 221.914062 C 109.785156 222.320312 110.054688 222.714844 110.355469 223.089844 C 138.625 260.972656 181.527344 287.101562 198.695312 296.601562 C 198.695312 296.601562 198.699219 296.601562 198.699219 296.605469 C 198.710938 296.613281 198.722656 296.617188 198.730469 296.621094 C 198.804688 296.664062 198.886719 296.683594 198.960938 296.714844 C 199.027344 296.742188 199.089844 296.777344 199.160156 296.792969 C 199.316406 296.832031 199.476562 296.855469 199.628906 296.855469 C 199.78125 296.855469 199.941406 296.832031 200.09375 296.792969 C 200.160156 296.777344 200.222656 296.742188 200.289062 296.714844 C 200.367188 296.683594 200.449219 296.664062 200.519531 296.621094 C 200.53125 296.617188 200.542969 296.613281 200.550781 296.605469 C 200.550781 296.605469 200.558594 296.601562 200.558594 296.601562 C 217.730469 287.109375 260.625 260.976562 288.867188 223.136719 C 289.171875 222.75 289.445312 222.34375 289.695312 221.933594 C 289.707031 221.917969 289.722656 221.90625 289.734375 221.890625 C 290.441406 220.925781 291.511719 220.332031 292.671875 220.269531 C 293.722656 220.214844 294.746094 220.589844 295.542969 221.328125 C 296.359375 222.082031 296.839844 223.125 296.90625 224.265625 C 296.964844 225.246094 296.679688 226.210938 296.132812 226.996094 C 285.351562 241.695312 272.734375 254.355469 261.042969 264.484375 M 145.816406 84.097656 C 165.898438 84.097656 185.003906 92.851562 198.234375 108.117188 C 198.9375 108.929688 200.332031 108.929688 201.035156 108.117188 C 214.269531 92.851562 233.375 84.097656 253.453125 84.097656 C 291.746094 84.097656 322.898438 115.296875 322.898438 153.636719 C 322.898438 178.925781 313.285156 201.855469 300.03125 221.460938 C 299.59375 220.378906 298.9375 219.398438 298.066406 218.589844 C 296.527344 217.15625 294.53125 216.429688 292.464844 216.550781 C 292.105469 216.574219 291.753906 216.628906 291.398438 216.695312 C 291.492188 215.617188 291.449219 214.519531 291.238281 213.433594 C 290.636719 210.320312 288.855469 207.628906 286.230469 205.851562 C 283.605469 204.074219 280.441406 203.433594 277.332031 204.039062 C 275.644531 204.367188 274.085938 205.050781 272.726562 206.019531 C 272.585938 206.050781 272.4375 206.09375 272.296875 206.164062 C 268.496094 208.039062 264.042969 208.484375 260.390625 207.359375 C 259.410156 207.0625 258.375 207.613281 258.070312 208.59375 C 257.769531 209.574219 258.324219 210.613281 259.304688 210.914062 C 260.195312 211.1875 261.125 211.386719 262.078125 211.515625 C 254.816406 214.125 248.730469 213.789062 244.652344 212.9375 C 244.304688 211.007812 242.625 209.542969 240.601562 209.542969 C 239.292969 209.542969 238.144531 210.164062 237.386719 211.113281 C 237.09375 211.277344 236.835938 211.519531 236.664062 211.839844 C 236.410156 212.296875 236.375 212.808594 236.515625 213.269531 C 236.5 213.40625 236.472656 213.539062 236.472656 213.675781 C 236.472656 215.957031 238.320312 217.808594 240.601562 217.808594 C 241.785156 217.808594 242.847656 217.300781 243.601562 216.5 C 245.597656 216.941406 248 217.269531 250.757812 217.269531 C 255.609375 217.269531 261.527344 216.238281 268.054688 212.984375 C 267.675781 214.601562 267.625 216.296875 267.953125 217.972656 C 268.148438 218.980469 269.125 219.636719 270.128906 219.441406 C 271.132812 219.246094 271.789062 218.273438 271.59375 217.265625 C 271.179688 215.125 271.621094 212.949219 272.839844 211.140625 C 274.0625 209.332031 275.90625 208.105469 278.046875 207.691406 C 280.183594 207.273438 282.359375 207.714844 284.164062 208.9375 C 285.96875 210.160156 287.195312 212.007812 287.609375 214.148438 C 288.066406 216.5 287.472656 218.929688 285.9375 220.859375 C 257.898438 258.429688 213.875 284.910156 199.632812 292.863281 C 192.527344 288.894531 178.003906 280.308594 161.738281 268.023438 C 161.65625 267.914062 161.5625 267.8125 161.457031 267.71875 C 158.722656 265.445312 156.988281 262.359375 156.578125 259.035156 C 156.167969 255.714844 157.101562 252.300781 159.199219 249.429688 C 159.804688 248.601562 159.625 247.441406 158.800781 246.835938 C 157.972656 246.230469 156.816406 246.410156 156.210938 247.238281 C 153.546875 250.871094 152.375 255.226562 152.902344 259.492188 C 152.984375 260.140625 153.113281 260.777344 153.265625 261.402344 C 139.375 250.148438 124.960938 236.445312 113.300781 220.820312 C 111.800781 218.933594 111.203125 216.5 111.65625 214.148438 C 112.515625 209.726562 116.804688 206.828125 121.222656 207.691406 C 124.542969 208.335938 127 210.925781 127.652344 214.050781 C 126.082031 214.636719 124.953125 216.136719 124.953125 217.914062 C 124.953125 220.199219 126.800781 222.046875 129.082031 222.046875 C 131.363281 222.046875 133.210938 220.199219 133.210938 217.914062 C 133.210938 216.527344 132.523438 215.308594 131.476562 214.558594 C 131.292969 212.613281 130.625 210.730469 129.503906 209.066406 C 127.730469 206.4375 125.042969 204.648438 121.929688 204.050781 C 118.816406 203.449219 115.65625 204.085938 113.03125 205.863281 C 110.40625 207.636719 108.621094 210.328125 108.015625 213.445312 C 107.808594 214.535156 107.765625 215.628906 107.859375 216.707031 C 107.507812 216.632812 107.15625 216.582031 106.792969 216.5625 C 103.4375 216.355469 100.449219 218.441406 99.226562 221.492188 C 81.109375 194.613281 76.367188 170.976562 76.367188 153.648438 C 76.367188 115.300781 107.519531 84.109375 145.816406 84.109375 M 253.457031 80.394531 C 233.894531 80.394531 215.222656 88.296875 201.5 102.199219 L 201.5 75.382812 L 231.207031 75.382812 C 232.230469 75.382812 233.0625 74.550781 233.0625 73.53125 C 233.0625 72.507812 232.230469 71.671875 231.207031 71.671875 L 201.496094 71.671875 L 201.496094 41.921875 C 201.496094 40.894531 200.664062 40.066406 199.640625 40.066406 C 198.613281 40.066406 197.78125 40.898438 197.78125 41.921875 L 197.78125 71.671875 L 168.082031 71.671875 C 167.054688 71.671875 166.226562 72.503906 166.226562 73.53125 C 166.226562 74.558594 167.054688 75.382812 168.082031 75.382812 L 197.789062 75.382812 L 197.789062 102.207031 C 184.066406 88.296875 165.382812 80.386719 145.816406 80.386719 C 105.472656 80.386719 72.65625 113.246094 72.65625 153.636719 C 72.65625 192.214844 94.511719 231.53125 135.855469 267.335938 C 166.964844 294.269531 198.5 310 198.8125 310.152344 C 199.070312 310.28125 199.351562 310.34375 199.632812 310.34375 C 199.914062 310.34375 200.199219 310.277344 200.453125 310.152344 C 200.773438 310 232.308594 294.269531 263.410156 267.339844 C 304.757812 231.535156 326.613281 192.21875 326.613281 153.640625 C 326.613281 113.253906 293.792969 80.390625 253.453125 80.390625 "/><path style=" stroke:none;fill-rule:nonzero;fill:rgb(13.729858%,12.159729%,12.548828%);fill-opacity:1;" d="M 208.316406 147.625 C 208.1875 147.625 208.0625 147.640625 207.945312 147.660156 C 207.699219 147.648438 207.453125 147.625 207.203125 147.625 L 173.335938 147.625 C 180.199219 141.164062 190.535156 137.339844 202.910156 137.339844 C 209.257812 137.339844 214.691406 138.316406 219.304688 139.804688 C 217.710938 144.347656 213.390625 147.625 208.316406 147.625 M 160.5625 168.742188 C 160.5625 176.152344 162.640625 182.089844 165.84375 186.867188 L 154.292969 186.867188 L 154.292969 152.835938 C 154.292969 152.230469 154 151.679688 153.539062 151.339844 L 165.605469 151.339844 C 162.316406 156.507812 160.558594 162.464844 160.558594 168.75 M 221.824219 183.058594 C 221.824219 180.644531 223.09375 178.824219 225.597656 177.636719 C 227.667969 176.652344 230.507812 176.167969 233.875 176.167969 C 238.699219 176.167969 244.585938 177.167969 250.765625 179.121094 C 257.328125 181.195312 265.390625 184.542969 270.757812 186.878906 L 224.292969 186.878906 C 222.726562 185.800781 221.824219 184.429688 221.824219 183.058594 M 250.765625 198.351562 C 244.632812 200.285156 238.800781 201.3125 233.910156 201.3125 L 233.902344 201.3125 C 230.503906 201.3125 227.632812 200.800781 225.597656 199.832031 C 223.09375 198.648438 221.824219 196.820312 221.824219 194.410156 C 221.824219 193.039062 222.71875 191.667969 224.292969 190.589844 L 270.757812 190.589844 C 265.375 192.933594 257.324219 196.28125 250.769531 198.351562 M 178.457031 198.339844 C 178.304688 198.371094 178.152344 198.386719 178.003906 198.417969 C 173.296875 199.480469 169.136719 202.375 166.296875 206.574219 C 166.007812 207 165.910156 207.527344 166.023438 208.023438 C 166.136719 208.523438 166.449219 208.953125 166.890625 209.214844 C 170.019531 211.0625 173.46875 212.019531 176.910156 212.019531 C 178.269531 212.019531 179.625 211.871094 180.953125 211.570312 C 185.34375 210.582031 189.238281 207.980469 192.050781 204.230469 C 194.648438 205.046875 196.914062 205.628906 198.582031 206.058594 C 199.230469 206.222656 199.773438 206.359375 200.207031 206.484375 C 200.664062 206.613281 201.273438 206.765625 202.003906 206.945312 C 210.289062 209.003906 235.5 215.277344 235.5 238.535156 C 235.5 247.277344 231.148438 255.164062 224.210938 260.691406 C 224.523438 260.054688 224.816406 259.402344 225.054688 258.722656 C 226.664062 254.167969 226.433594 249.101562 224.390625 244.460938 C 224.1875 243.992188 223.796875 243.628906 223.316406 243.457031 C 222.832031 243.289062 222.300781 243.324219 221.847656 243.554688 C 217.347656 245.875 213.980469 249.664062 212.367188 254.21875 C 210.9375 258.265625 210.964844 262.71875 212.421875 266.917969 C 208.625 268.121094 204.515625 268.78125 200.234375 268.78125 C 182.238281 268.78125 167.363281 257.15625 165.242188 242.207031 L 196.101562 242.207031 C 200.597656 242.207031 204.257812 245.871094 204.257812 250.375 C 204.257812 254.878906 200.597656 258.542969 196.101562 258.542969 C 193.710938 258.542969 191.449219 257.496094 189.894531 255.679688 C 189.230469 254.898438 188.058594 254.804688 187.28125 255.472656 C 186.5 256.140625 186.410156 257.3125 187.074219 258.09375 C 189.335938 260.742188 192.625 262.261719 196.101562 262.261719 C 202.644531 262.261719 207.964844 256.929688 207.964844 250.378906 C 207.964844 247.214844 206.714844 244.339844 204.695312 242.210938 L 213.109375 242.210938 C 219.6875 242.210938 225.042969 236.878906 225.042969 230.328125 C 225.042969 223.777344 219.71875 218.445312 213.175781 218.445312 C 209.699219 218.445312 206.40625 219.964844 204.152344 222.617188 C 203.484375 223.398438 203.578125 224.566406 204.355469 225.234375 C 205.136719 225.902344 206.304688 225.808594 206.972656 225.03125 C 208.527344 223.207031 210.785156 222.160156 213.175781 222.160156 C 217.675781 222.160156 221.335938 225.824219 221.335938 230.328125 C 221.335938 234.832031 217.644531 238.496094 213.109375 238.496094 L 165.023438 238.496094 C 165.03125 238.195312 165.03125 237.898438 165.015625 237.59375 C 165.488281 228.808594 172.757812 221.800781 181.644531 221.800781 C 184.332031 221.800781 186.90625 222.4375 189.238281 223.636719 C 189.191406 223.878906 189.164062 224.132812 189.164062 224.382812 C 189.164062 226.667969 191.007812 228.515625 193.289062 228.515625 C 195.574219 228.515625 197.417969 226.667969 197.417969 224.382812 C 197.417969 222.097656 195.574219 220.25 193.289062 220.25 C 192.660156 220.25 192.074219 220.398438 191.542969 220.648438 C 188.53125 218.96875 185.167969 218.082031 181.644531 218.082031 C 173.007812 218.082031 165.628906 223.496094 162.664062 231.097656 C 162.3125 230.621094 161.9375 230.160156 161.511719 229.738281 C 159.492188 227.714844 156.929688 226.570312 154.292969 226.28125 L 154.292969 190.585938 L 168.726562 190.585938 C 171.59375 193.753906 174.96875 196.285156 178.445312 198.335938 M 188.289062 203 C 186.097656 205.507812 183.265625 207.238281 180.136719 207.941406 C 177.007812 208.644531 173.707031 208.300781 170.65625 206.976562 C 172.851562 204.46875 175.679688 202.738281 178.8125 202.035156 C 181.949219 201.332031 185.246094 201.675781 188.296875 203 M 246.164062 232.035156 C 249.535156 229.226562 253.804688 227.648438 258.371094 227.496094 C 257.390625 231.960938 255.066406 235.882812 251.699219 238.691406 C 248.328125 241.5 244.058594 243.078125 239.492188 243.230469 C 240.46875 238.765625 242.796875 234.84375 246.164062 232.035156 M 215.859375 255.453125 C 216.929688 252.429688 218.980469 249.816406 221.726562 247.929688 C 222.671875 251.125 222.628906 254.445312 221.554688 257.46875 C 220.484375 260.496094 218.433594 263.113281 215.6875 264.992188 C 214.742188 261.800781 214.792969 258.476562 215.859375 255.449219 M 154.292969 230.019531 C 155.980469 230.289062 157.59375 231.058594 158.890625 232.355469 C 160.316406 233.785156 161.152344 235.664062 161.300781 237.644531 C 161.292969 237.898438 161.265625 238.144531 161.261719 238.398438 C 161.261719 238.429688 161.25 238.460938 161.25 238.488281 L 154.292969 238.488281 Z M 247.6875 154.683594 C 250.183594 157.558594 251.648438 161.222656 251.914062 165.167969 C 248.046875 164.351562 244.625 162.390625 242.132812 159.515625 C 239.640625 156.640625 238.175781 152.980469 237.910156 149.027344 C 241.777344 149.84375 245.195312 151.808594 247.6875 154.679688 M 190.761719 162.023438 C 187.445312 162.074219 184.253906 161.136719 181.628906 159.289062 C 179.003906 157.441406 177.042969 154.761719 175.972656 151.609375 C 179.28125 151.550781 182.480469 152.492188 185.105469 154.339844 C 187.730469 156.1875 189.691406 158.867188 190.761719 162.023438 M 142.660156 213.03125 C 140.714844 210.476562 139.644531 207.332031 139.574219 204.003906 C 142.765625 204.949219 145.519531 206.804688 147.464844 209.351562 C 149.414062 211.898438 150.480469 215.054688 150.554688 218.378906 C 147.363281 217.433594 144.609375 215.578125 142.660156 213.03125 M 202.910156 133.625 C 190.351562 133.625 179.621094 137.230469 171.859375 144.046875 C 170.582031 145.164062 169.414062 146.367188 168.34375 147.625 L 138.167969 147.625 C 137.144531 147.625 136.3125 148.457031 136.3125 149.484375 L 136.3125 150.644531 C 136.3125 151.5625 136.980469 152.335938 137.886719 152.476562 L 150.585938 154.425781 L 150.585938 207.355469 C 150.523438 207.273438 150.472656 207.1875 150.410156 207.105469 C 147.476562 203.261719 143.113281 200.695312 138.113281 199.871094 C 137.609375 199.789062 137.09375 199.914062 136.6875 200.222656 C 136.28125 200.53125 136.019531 201 135.96875 201.507812 C 135.457031 206.554688 136.785156 211.441406 139.71875 215.285156 C 142.363281 218.75 146.191406 221.167969 150.585938 222.214844 L 150.585938 226.441406 C 148.339844 226.894531 146.195312 227.988281 144.457031 229.726562 C 142.179688 232.007812 140.921875 235.042969 140.921875 238.265625 C 140.921875 241.492188 142.179688 244.527344 144.457031 246.804688 C 144.820312 247.171875 145.292969 247.351562 145.769531 247.351562 C 146.246094 247.351562 146.71875 247.171875 147.082031 246.804688 C 147.804688 246.082031 147.804688 244.90625 147.082031 244.183594 C 145.507812 242.601562 144.636719 240.5 144.636719 238.265625 C 144.636719 236.035156 145.507812 233.933594 147.082031 232.355469 C 148.09375 231.34375 149.300781 230.648438 150.589844 230.261719 L 150.589844 240.339844 C 150.589844 241.367188 151.421875 242.195312 152.445312 242.195312 L 161.492188 242.195312 C 163.605469 259.199219 180.167969 272.484375 200.230469 272.484375 C 201.839844 272.484375 203.417969 272.386719 204.976562 272.222656 C 202.25 274.707031 200.320312 277.265625 198.976562 279.503906 C 197.878906 279.835938 197.074219 280.84375 197.074219 282.050781 C 197.074219 283.523438 198.269531 284.71875 199.742188 284.71875 C 201.214844 284.71875 202.40625 283.523438 202.40625 282.050781 C 202.40625 281.761719 202.351562 281.484375 202.265625 281.222656 C 204.402344 277.730469 208.152344 273.398438 214.550781 270.097656 C 225.90625 266.167969 234.652344 257.726562 237.859375 247.320312 C 238.617188 247.375 239.375 247.472656 240.121094 247.664062 C 242.980469 248.398438 245.484375 250.085938 247.359375 252.546875 C 247.722656 253.023438 248.277344 253.277344 248.835938 253.277344 C 249.230469 253.277344 249.625 253.152344 249.960938 252.894531 C 250.773438 252.273438 250.929688 251.109375 250.308594 250.292969 C 248.964844 248.53125 247.355469 247.089844 245.554688 245.988281 C 248.679688 245.101562 251.574219 243.605469 254.058594 241.539062 C 258.660156 237.703125 261.621094 232.140625 262.386719 225.886719 C 262.445312 225.378906 262.296875 224.867188 261.96875 224.476562 C 261.640625 224.085938 261.167969 223.839844 260.65625 223.808594 C 254.371094 223.425781 248.378906 225.332031 243.78125 229.167969 C 241.878906 230.753906 240.277344 232.644531 238.976562 234.746094 C 236.488281 211.699219 211.414062 205.445312 202.878906 203.324219 C 202.191406 203.15625 201.625 203.011719 201.1875 202.894531 C 200.734375 202.765625 200.160156 202.621094 199.488281 202.445312 C 194.253906 201.105469 182.589844 198.113281 174.113281 190.582031 L 193.863281 190.582031 C 193.984375 190.605469 194.105469 190.621094 194.234375 190.628906 C 197.886719 190.699219 201.222656 191.921875 203.890625 194.164062 C 205.519531 195.535156 206.824219 197.21875 207.757812 199.167969 C 208.074219 199.832031 208.742188 200.21875 209.429688 200.21875 C 209.699219 200.21875 209.972656 200.15625 210.226562 200.035156 C 211.152344 199.59375 211.539062 198.484375 211.101562 197.558594 C 209.9375 195.136719 208.316406 193.035156 206.273438 191.320312 C 205.960938 191.058594 205.636719 190.820312 205.316406 190.582031 L 219.21875 190.582031 C 218.5 191.765625 218.109375 193.066406 218.109375 194.402344 C 218.109375 198.257812 220.203125 201.375 224 203.175781 C 226.566406 204.394531 229.898438 205.015625 233.898438 205.015625 L 233.902344 205.015625 C 239.171875 205.015625 245.386719 203.929688 251.878906 201.882812 C 262.773438 198.441406 277.628906 191.585938 278.3125 191.273438 C 278.328125 191.265625 278.34375 191.257812 278.359375 191.25 C 278.445312 191.207031 278.523438 191.160156 278.589844 191.113281 C 278.652344 191.078125 278.769531 191.007812 278.820312 190.964844 C 278.886719 190.914062 278.953125 190.863281 279.035156 190.785156 C 279.121094 190.710938 279.210938 190.632812 279.21875 190.617188 C 279.25 190.585938 279.28125 190.554688 279.308594 190.523438 C 279.359375 190.46875 279.414062 190.390625 279.464844 190.320312 C 279.539062 190.226562 279.597656 190.128906 279.640625 190.058594 C 279.679688 189.984375 279.753906 189.839844 279.785156 189.765625 C 279.835938 189.644531 279.875 189.527344 279.90625 189.425781 C 279.9375 189.324219 279.953125 189.214844 279.980469 189.050781 C 279.996094 188.941406 280 188.839844 280 188.730469 C 280 188.644531 279.980469 188.433594 279.96875 188.351562 C 279.957031 188.277344 279.929688 188.125 279.90625 188.050781 C 279.875 187.929688 279.832031 187.8125 279.785156 187.695312 C 279.753906 187.628906 279.691406 187.496094 279.65625 187.429688 C 279.597656 187.332031 279.539062 187.234375 279.464844 187.140625 C 279.414062 187.070312 279.351562 186.988281 279.300781 186.929688 C 279.269531 186.898438 279.242188 186.863281 279.203125 186.832031 C 279.144531 186.769531 279.082031 186.714844 279.011719 186.652344 C 278.953125 186.601562 278.847656 186.515625 278.785156 186.472656 C 278.71875 186.425781 278.644531 186.378906 278.574219 186.339844 C 278.503906 186.296875 278.421875 186.246094 278.347656 186.210938 C 278.316406 186.195312 278.28125 186.175781 278.25 186.160156 C 277.625 185.871094 262.769531 179.015625 251.867188 175.578125 C 240.359375 171.941406 229.945312 171.460938 223.996094 174.277344 C 220.195312 176.082031 218.105469 179.203125 218.105469 183.058594 C 218.105469 184.394531 218.488281 185.6875 219.210938 186.878906 L 181.417969 186.878906 C 181.777344 186.617188 182.136719 186.355469 182.480469 186.066406 C 186.179688 182.960938 188.542969 178.472656 189.136719 173.441406 C 189.253906 172.425781 188.53125 171.5 187.511719 171.378906 C 186.484375 171.257812 185.574219 171.984375 185.453125 173 C 184.96875 177.09375 183.066406 180.722656 180.097656 183.222656 C 177.445312 185.453125 174.050781 186.671875 170.433594 186.75 C 166.742188 182.171875 164.261719 176.300781 164.261719 168.753906 C 164.261719 162.121094 166.316406 156.203125 169.992188 151.347656 L 172.046875 151.347656 C 173.214844 155.871094 175.820312 159.753906 179.492188 162.339844 C 182.671875 164.578125 186.484375 165.75 190.464844 165.75 C 191.433594 165.75 192.410156 165.683594 193.386719 165.539062 C 193.894531 165.46875 194.347656 165.191406 194.644531 164.769531 C 194.941406 164.347656 195.050781 163.828125 194.941406 163.324219 C 193.921875 158.375 191.203125 154.125 187.273438 151.347656 L 207.199219 151.347656 C 213.980469 151.347656 219.5 156.824219 219.5 163.558594 C 219.5 170.289062 214.027344 175.765625 207.304688 175.765625 C 202.828125 175.765625 198.722656 173.316406 196.582031 169.375 C 196.09375 168.472656 194.96875 168.136719 194.070312 168.628906 C 193.171875 169.121094 192.839844 170.246094 193.328125 171.144531 C 196.117188 176.285156 201.46875 179.480469 207.308594 179.480469 C 216.078125 179.480469 223.21875 172.335938 223.21875 163.558594 C 223.21875 157.640625 219.949219 152.480469 215.125 149.734375 C 218.683594 147.964844 221.453125 144.863281 222.796875 141.078125 C 227.632812 143.074219 231.386719 145.605469 234.191406 147.988281 C 234.253906 153.230469 236.046875 158.148438 239.34375 161.953125 C 242.894531 166.046875 247.964844 168.613281 253.621094 169.191406 C 253.683594 169.195312 253.746094 169.199219 253.804688 169.199219 C 254.25 169.199219 254.683594 169.039062 255.019531 168.742188 C 255.410156 168.410156 255.636719 167.925781 255.65625 167.414062 C 255.878906 161.730469 254.046875 156.34375 250.492188 152.25 C 246.996094 148.21875 242.015625 145.671875 236.460938 145.050781 C 233.308594 142.398438 229.074219 139.582031 223.613281 137.40625 C 223.660156 136.929688 223.683594 136.445312 223.683594 135.953125 C 223.683594 127.46875 216.792969 120.5625 208.316406 120.5625 C 203.8125 120.5625 199.550781 122.53125 196.625 125.964844 C 195.957031 126.746094 196.050781 127.917969 196.828125 128.585938 C 197.609375 129.253906 198.777344 129.160156 199.445312 128.378906 C 201.664062 125.777344 204.898438 124.28125 208.316406 124.28125 C 214.746094 124.28125 219.972656 129.519531 219.972656 135.957031 C 219.972656 136.007812 219.964844 136.066406 219.964844 136.117188 C 215.121094 134.609375 209.464844 133.632812 202.910156 133.632812 "/><path style=" stroke:none;fill-rule:nonzero;fill:rgb(13.729858%,12.159729%,12.548828%);fill-opacity:1;" d="M 136.496094 191.183594 C 132.179688 192.664062 127.621094 192.71875 123.476562 191.292969 C 119.335938 189.871094 115.761719 187.039062 113.261719 183.210938 C 117.582031 181.730469 122.132812 181.675781 126.28125 183.101562 C 130.429688 184.523438 133.996094 187.355469 136.496094 191.183594 M 101.550781 202.363281 C 102.203125 202.472656 102.847656 202.523438 103.488281 202.523438 C 109.1875 202.523438 114.230469 198.386719 115.191406 192.578125 C 115.285156 192.027344 115.320312 191.484375 115.335938 190.933594 C 117.417969 192.609375 119.75 193.933594 122.277344 194.808594 C 124.683594 195.632812 127.199219 196.039062 129.738281 196.039062 C 133.179688 196.039062 136.65625 195.289062 139.953125 193.796875 C 140.421875 193.585938 140.78125 193.1875 140.945312 192.707031 C 141.109375 192.222656 141.066406 191.691406 140.832031 191.238281 C 137.894531 185.667969 133.148438 181.527344 127.484375 179.585938 C 127.175781 179.480469 126.855469 179.40625 126.542969 179.316406 C 133.355469 176.367188 137.632812 172.195312 140.152344 168.890625 C 140.265625 168.902344 140.375 168.921875 140.488281 168.921875 C 142.769531 168.921875 144.617188 167.074219 144.617188 164.789062 C 144.617188 162.503906 142.769531 160.65625 140.488281 160.65625 C 138.207031 160.65625 136.359375 162.503906 136.359375 164.789062 C 136.359375 165.570312 136.589844 166.292969 136.964844 166.921875 C 134.785156 169.683594 131.175781 173.136719 125.566406 175.683594 C 128.015625 172.523438 129.363281 168.667969 129.363281 164.597656 C 129.363281 159.757812 127.484375 155.203125 124.0625 151.777344 C 121.257812 148.96875 117.523438 147.417969 113.554688 147.417969 C 109.585938 147.417969 105.859375 148.964844 103.046875 151.777344 C 100.730469 154.09375 99.457031 157.179688 99.457031 160.457031 C 99.457031 163.730469 100.730469 166.816406 103.046875 169.132812 C 107.015625 173.109375 113.472656 173.109375 117.441406 169.132812 C 120.761719 165.8125 120.761719 160.402344 117.441406 157.078125 C 116.71875 156.351562 115.542969 156.351562 114.820312 157.078125 C 114.097656 157.800781 114.097656 158.976562 114.820312 159.699219 C 116.695312 161.574219 116.695312 164.628906 114.820312 166.503906 C 113.601562 167.726562 111.976562 168.398438 110.246094 168.398438 C 108.519531 168.398438 106.894531 167.726562 105.671875 166.503906 C 104.058594 164.886719 103.171875 162.742188 103.171875 160.449219 C 103.171875 158.160156 104.058594 156.015625 105.671875 154.398438 C 107.78125 152.285156 110.582031 151.125 113.554688 151.125 C 116.53125 151.125 119.335938 152.285156 121.441406 154.398438 C 124.160156 157.117188 125.65625 160.742188 125.65625 164.59375 C 125.65625 168.445312 124.160156 172.066406 121.441406 174.792969 C 116.707031 179.527344 109.253906 180.761719 102.441406 177.9375 C 93.570312 174.257812 88.273438 165.175781 88.273438 153.636719 C 88.273438 132.9375 99.339844 113.929688 117.253906 103.636719 C 117.46875 103.691406 117.6875 103.734375 117.917969 103.734375 C 119.390625 103.734375 120.585938 102.535156 120.585938 101.0625 C 120.585938 99.589844 119.390625 98.390625 117.917969 98.390625 C 116.652344 98.390625 115.597656 99.28125 115.324219 100.46875 C 96.46875 111.34375 84.773438 131.300781 84.570312 153.085938 C 84.546875 153.214844 84.527344 153.347656 84.527344 153.484375 C 84.527344 163.710938 86.25 174.128906 89.644531 184.441406 C 89.898438 185.21875 90.621094 185.714844 91.402344 185.714844 C 91.597656 185.714844 91.792969 185.683594 91.980469 185.621094 C 92.957031 185.296875 93.484375 184.25 93.160156 183.273438 C 92.027344 179.835938 91.101562 176.382812 90.355469 172.9375 C 94.195312 178.09375 98.90625 180.5 101.011719 181.375 C 102.121094 181.832031 103.242188 182.175781 104.371094 182.453125 C 104.507812 182.515625 104.652344 182.558594 104.808594 182.585938 C 106.957031 182.941406 108.835938 184.109375 110.109375 185.886719 C 111.382812 187.664062 111.882812 189.824219 111.53125 191.976562 C 110.796875 196.417969 106.589844 199.4375 102.15625 198.703125 C 100.304688 198.394531 98.644531 197.460938 97.414062 196.085938 C 97.433594 195.945312 97.453125 195.804688 97.453125 195.660156 C 97.453125 194.183594 96.257812 192.988281 94.785156 192.988281 C 93.316406 192.988281 92.121094 194.183594 92.121094 195.660156 C 92.121094 197.007812 93.125 198.113281 94.429688 198.292969 C 96.238281 200.445312 98.746094 201.902344 101.554688 202.371094 "/><path style=" stroke:none;fill-rule:nonzero;fill:rgb(13.729858%,12.159729%,12.548828%);fill-opacity:1;" d="M 292.171875 134.15625 C 289.0625 130.8125 287.15625 126.667969 286.761719 122.292969 C 286.367188 117.917969 287.5 113.503906 289.96875 109.65625 C 293.085938 113 294.988281 117.144531 295.378906 121.519531 C 295.769531 125.894531 294.640625 130.308594 292.171875 134.15625 M 281.390625 103.734375 C 281.613281 103.734375 281.824219 103.695312 282.035156 103.644531 C 283.855469 104.691406 285.605469 105.824219 287.28125 107.042969 C 284.082031 111.722656 282.585938 117.191406 283.070312 122.628906 C 283.609375 128.601562 286.496094 134.195312 291.199219 138.382812 C 291.539062 138.683594 291.976562 138.847656 292.429688 138.847656 C 292.484375 138.847656 292.542969 138.847656 292.597656 138.84375 C 293.105469 138.796875 293.574219 138.539062 293.890625 138.140625 C 297.773438 133.179688 299.613281 127.15625 299.074219 121.183594 C 298.972656 120.023438 298.753906 118.890625 298.476562 117.765625 C 306.394531 127.714844 310.921875 140.167969 311 153.320312 C 310.972656 153.441406 310.960938 153.566406 310.960938 153.691406 C 310.960938 154.507812 310.929688 155.324219 310.910156 156.148438 C 310.199219 166.484375 305.054688 174.535156 296.835938 177.945312 C 290.03125 180.769531 282.570312 179.535156 277.835938 174.796875 C 275.117188 172.070312 273.613281 168.449219 273.613281 164.597656 C 273.613281 160.75 275.113281 157.128906 277.835938 154.402344 C 279.941406 152.292969 282.742188 151.132812 285.71875 151.132812 C 288.691406 151.132812 291.496094 152.292969 293.605469 154.402344 C 295.21875 156.019531 296.105469 158.171875 296.105469 160.457031 C 296.105469 162.742188 295.21875 164.890625 293.605469 166.507812 C 292.382812 167.730469 290.757812 168.402344 289.03125 168.402344 C 287.300781 168.402344 285.675781 167.730469 284.457031 166.507812 C 282.585938 164.636719 282.585938 161.582031 284.457031 159.707031 C 285.179688 158.980469 285.179688 157.804688 284.457031 157.082031 C 283.734375 156.359375 282.558594 156.359375 281.835938 157.082031 C 278.519531 160.402344 278.519531 165.8125 281.835938 169.132812 C 283.757812 171.058594 286.3125 172.117188 289.03125 172.117188 C 291.746094 172.117188 294.308594 171.058594 296.222656 169.132812 C 298.542969 166.816406 299.8125 163.730469 299.8125 160.457031 C 299.8125 157.179688 298.539062 154.09375 296.222656 151.777344 C 293.417969 148.96875 289.6875 147.417969 285.71875 147.417969 C 281.75 147.417969 278.019531 148.964844 275.214844 151.777344 C 271.792969 155.203125 269.914062 159.757812 269.914062 164.597656 C 269.914062 169.441406 271.792969 173.996094 275.214844 177.421875 C 278.332031 180.542969 282.394531 182.410156 286.753906 182.964844 C 284.578125 185.535156 283.492188 189.003906 284.082031 192.582031 C 285.039062 198.394531 290.082031 202.53125 295.777344 202.53125 C 296.417969 202.53125 297.066406 202.476562 297.71875 202.371094 C 300.53125 201.902344 303.042969 200.441406 304.855469 198.28125 C 306.097656 198.050781 307.035156 196.96875 307.035156 195.660156 C 307.035156 194.183594 305.839844 192.988281 304.367188 192.988281 C 302.894531 192.988281 301.703125 194.183594 301.703125 195.660156 C 301.703125 195.847656 301.722656 196.027344 301.757812 196.207031 C 300.539062 197.523438 298.917969 198.410156 297.117188 198.710938 C 292.671875 199.445312 288.472656 196.425781 287.742188 191.976562 C 287.390625 189.824219 287.890625 187.664062 289.164062 185.886719 C 290.433594 184.109375 292.316406 182.941406 294.464844 182.585938 C 294.621094 182.558594 294.761719 182.507812 294.902344 182.453125 C 296.03125 182.171875 297.152344 181.832031 298.253906 181.375 C 300.351562 180.5 305.035156 178.109375 308.863281 173 C 308.132812 176.425781 307.21875 179.84375 306.105469 183.257812 C 305.789062 184.234375 306.316406 185.28125 307.289062 185.601562 C 307.480469 185.660156 307.675781 185.691406 307.863281 185.691406 C 308.644531 185.691406 309.371094 185.195312 309.628906 184.414062 C 312.671875 175.109375 314.332031 165.730469 314.613281 156.472656 C 314.675781 155.558594 314.714844 154.621094 314.714844 153.648438 C 314.714844 131.660156 302.992188 111.464844 284 100.492188 C 283.738281 99.292969 282.671875 98.390625 281.394531 98.390625 C 279.921875 98.390625 278.726562 99.589844 278.726562 101.0625 C 278.726562 102.535156 279.921875 103.734375 281.394531 103.734375 "/><path style=" stroke:none;fill-rule:nonzero;fill:rgb(13.729858%,12.159729%,12.548828%);fill-opacity:1;" d="M 267.871094 142.90625 C 267.097656 146.023438 265.308594 148.820312 262.753906 150.957031 C 261.503906 147.871094 261.230469 144.558594 262.003906 141.441406 C 262.742188 138.480469 264.410156 135.808594 266.769531 133.714844 C 266.890625 133.621094 267.019531 133.527344 267.144531 133.4375 C 268.378906 136.511719 268.644531 139.808594 267.871094 142.90625 M 230.242188 122.648438 C 227.605469 120.820312 225.621094 118.15625 224.53125 115.007812 C 227.867188 114.941406 231.046875 115.84375 233.683594 117.671875 C 236.320312 119.5 238.304688 122.167969 239.394531 125.3125 C 236.105469 125.386719 232.878906 124.476562 230.242188 122.648438 M 208.4375 117.550781 C 209.910156 117.550781 211.105469 116.355469 211.105469 114.878906 C 211.105469 114.832031 211.09375 114.789062 211.089844 114.742188 C 222.089844 102.546875 235.039062 95.570312 246.820312 95.570312 C 254.691406 95.570312 261.230469 98.121094 266.257812 103.152344 C 269.742188 106.644531 271.667969 111.285156 271.667969 116.226562 C 271.667969 121.164062 269.75 125.808594 266.257812 129.296875 C 266.066406 129.488281 265.863281 129.65625 265.660156 129.835938 C 265.257812 130.140625 264.867188 130.457031 264.488281 130.789062 C 262.050781 132.554688 259.140625 133.519531 256.074219 133.519531 C 252.226562 133.519531 248.609375 132.019531 245.886719 129.296875 C 243.78125 127.1875 242.621094 124.382812 242.621094 121.40625 C 242.621094 118.429688 243.78125 115.621094 245.886719 113.515625 C 247.503906 111.898438 249.648438 111.007812 251.933594 111.007812 C 254.222656 111.007812 256.363281 111.898438 257.980469 113.515625 C 260.503906 116.039062 260.503906 120.148438 257.980469 122.675781 C 257.074219 123.582031 255.867188 124.082031 254.582031 124.082031 C 253.914062 124.082031 253.273438 123.941406 252.675781 123.6875 C 252.445312 122.445312 251.363281 121.5 250.058594 121.5 C 248.585938 121.5 247.390625 122.695312 247.390625 124.167969 C 247.390625 125.640625 248.585938 126.839844 250.058594 126.839844 C 250.230469 126.839844 250.402344 126.816406 250.558594 126.789062 C 251.78125 127.445312 253.148438 127.792969 254.574219 127.792969 C 256.847656 127.792969 258.984375 126.90625 260.59375 125.296875 C 264.5625 121.324219 264.5625 114.859375 260.59375 110.890625 C 258.277344 108.574219 255.199219 107.296875 251.929688 107.296875 C 248.65625 107.296875 245.574219 108.574219 243.261719 110.890625 C 241.304688 112.851562 239.976562 115.265625 239.34375 117.894531 C 238.296875 116.660156 237.113281 115.558594 235.78125 114.628906 C 231.8125 111.875 226.867188 110.777344 221.859375 111.53125 C 221.351562 111.609375 220.898438 111.890625 220.605469 112.3125 C 220.316406 112.734375 220.210938 113.257812 220.320312 113.761719 C 221.375 118.714844 224.144531 122.960938 228.113281 125.714844 C 231.269531 127.902344 235.039062 129.042969 238.964844 129.042969 C 239.625 129.042969 240.292969 128.996094 240.960938 128.933594 C 241.597656 130.011719 242.355469 131.023438 243.261719 131.933594 C 246.683594 135.355469 251.230469 137.242188 256.066406 137.242188 C 257.324219 137.242188 258.558594 137.109375 259.765625 136.855469 C 259.183594 138.039062 258.714844 139.269531 258.394531 140.554688 C 257.226562 145.242188 257.949219 150.261719 260.421875 154.6875 C 260.671875 155.136719 261.09375 155.460938 261.589844 155.582031 C 261.738281 155.617188 261.886719 155.640625 262.042969 155.640625 C 262.394531 155.640625 262.742188 155.535156 263.046875 155.339844 C 267.308594 152.597656 270.292969 148.503906 271.460938 143.8125 C 272.539062 139.492188 271.988281 134.890625 269.964844 130.730469 C 273.449219 126.699219 275.367188 121.617188 275.367188 116.230469 C 275.367188 110.300781 273.0625 104.722656 268.875 100.535156 C 263.210938 94.859375 255.585938 91.867188 246.820312 91.867188 C 239.222656 91.867188 224.261719 94.558594 208.355469 112.226562 C 206.921875 112.265625 205.765625 113.441406 205.765625 114.890625 C 205.765625 116.363281 206.960938 117.558594 208.433594 117.558594 "/><path style=" stroke:none;fill-rule:nonzero;fill:rgb(13.729858%,12.159729%,12.548828%);fill-opacity:1;" d="M 11.820312 287.503906 L 13.800781 288.34375 L 13.800781 322.085938 L 35.054688 322.085938 L 35.054688 320.4375 L 17.675781 320.4375 L 17.675781 303.835938 L 31.492188 303.835938 L 31.492188 302.195312 L 17.675781 302.195312 L 17.675781 288.121094 L 35.0625 288.121094 L 35.0625 286.472656 L 11.820312 286.472656 Z M 11.820312 287.503906 "/><path style=" stroke:none;fill-rule:nonzero;fill:rgb(13.729858%,12.159729%,12.548828%);fill-opacity:1;" d="M 52.113281 309.027344 C 51.082031 308.457031 49.933594 307.929688 48.703125 307.445312 C 47.476562 306.96875 46.121094 306.445312 44.640625 305.886719 C 43.046875 305.257812 42 304.46875 41.53125 303.527344 C 41.066406 302.589844 40.980469 301.699219 41.277344 300.828125 C 41.578125 299.945312 42.195312 299.175781 43.101562 298.546875 C 44.015625 297.917969 45.101562 297.59375 46.34375 297.59375 C 47.742188 297.59375 48.941406 297.808594 49.917969 298.234375 C 50.890625 298.660156 51.90625 299.378906 52.933594 300.371094 L 53.179688 300.613281 L 54.058594 299.730469 L 53.828125 299.484375 C 52.839844 298.425781 51.660156 297.632812 50.332031 297.136719 C 49.015625 296.644531 47.671875 296.398438 46.34375 296.398438 C 44.742188 296.398438 43.308594 296.710938 42.078125 297.328125 C 40.964844 297.878906 40.085938 298.6875 39.476562 299.71875 C 38.871094 300.742188 38.542969 301.828125 38.488281 302.957031 C 38.433594 304.09375 38.691406 305.203125 39.246094 306.261719 C 39.808594 307.332031 40.734375 308.179688 41.984375 308.769531 C 42.746094 309.140625 43.609375 309.496094 44.542969 309.828125 C 45.460938 310.15625 46.394531 310.507812 47.332031 310.867188 C 48.25 311.21875 49.148438 311.632812 49.992188 312.089844 C 50.8125 312.53125 51.515625 313.074219 52.082031 313.699219 C 52.660156 314.347656 52.988281 315.09375 53.082031 315.980469 C 53.171875 316.863281 53 317.730469 52.566406 318.558594 C 52.136719 319.386719 51.445312 320.105469 50.515625 320.679688 C 49.589844 321.253906 48.367188 321.542969 46.886719 321.542969 C 45.261719 321.542969 43.804688 321.269531 42.570312 320.730469 C 41.328125 320.191406 40.113281 319.34375 38.957031 318.21875 L 38.738281 318.003906 L 37.707031 318.835938 L 37.96875 319.113281 C 39.121094 320.335938 40.53125 321.273438 42.160156 321.902344 C 43.773438 322.527344 45.433594 322.839844 47.085938 322.839844 C 49.019531 322.839844 50.773438 322.425781 52.304688 321.609375 C 53.316406 321.054688 54.148438 320.214844 54.773438 319.117188 C 55.386719 318.035156 55.738281 316.863281 55.808594 315.640625 C 55.878906 314.417969 55.632812 313.191406 55.085938 312 C 54.527344 310.792969 53.527344 309.796875 52.113281 309.039062 "/><path style=" stroke:none;fill-rule:nonzero;fill:rgb(13.729858%,12.159729%,12.548828%);fill-opacity:1;" d="M 72.386719 298.382812 C 73.21875 298.710938 74.007812 299.214844 74.726562 299.871094 C 75.832031 300.921875 76.675781 302.265625 77.214844 303.867188 C 77.757812 305.496094 78.050781 307.210938 78.085938 308.972656 C 78.121094 310.734375 77.890625 312.484375 77.40625 314.171875 C 76.925781 315.855469 76.203125 317.289062 75.242188 318.433594 C 74.492188 319.34375 73.628906 320 72.679688 320.390625 C 70.429688 321.316406 67.960938 321.136719 65.796875 320.007812 C 64.589844 319.378906 63.628906 318.558594 62.941406 317.558594 L 62.941406 301.757812 C 63.753906 300.535156 64.777344 299.574219 65.976562 298.90625 C 68.023438 297.777344 70.3125 297.550781 72.386719 298.382812 M 79.921875 301.21875 C 79.175781 300.027344 78.207031 299.019531 77.054688 298.246094 C 76.101562 297.5625 75.066406 297.070312 73.96875 296.777344 C 71.148438 296.023438 68.285156 296.261719 65.855469 297.367188 C 64.695312 297.894531 63.714844 298.609375 62.9375 299.488281 L 62.9375 296.839844 L 57.382812 296.839844 L 57.382812 297.875 L 59.414062 298.671875 L 59.414062 334.933594 L 62.9375 334.933594 L 62.9375 319.816406 C 63.875 320.632812 64.90625 321.269531 66.019531 321.714844 C 67.378906 322.261719 68.789062 322.539062 70.214844 322.539062 C 72.585938 322.539062 74.832031 321.835938 76.902344 320.441406 C 78.019531 319.664062 78.980469 318.671875 79.761719 317.496094 C 80.535156 316.335938 81.125 315.039062 81.515625 313.648438 C 81.90625 312.269531 82.101562 310.832031 82.101562 309.367188 C 82.101562 307.902344 81.921875 306.464844 81.570312 305.089844 C 81.222656 303.714844 80.664062 302.40625 79.914062 301.21875 "/><path style=" stroke:none;fill-rule:nonzero;fill:rgb(13.729858%,12.159729%,12.548828%);fill-opacity:1;" d="M 83.976562 297.871094 L 85.957031 298.667969 L 85.957031 322.085938 L 89.480469 322.085938 L 89.480469 296.839844 L 83.976562 296.839844 Z M 83.976562 297.871094 "/><path style=" stroke:none;fill-rule:nonzero;fill:rgb(13.729858%,12.159729%,12.548828%);fill-opacity:1;" d="M 109.816406 296.679688 C 108.144531 296.144531 106.242188 296.175781 104.359375 296.699219 C 103.398438 296.972656 102.457031 297.378906 101.578125 297.902344 C 100.695312 298.425781 99.890625 299.070312 99.175781 299.820312 C 98.792969 300.226562 98.449219 300.667969 98.144531 301.144531 L 98.144531 296.832031 L 92.59375 296.832031 L 92.59375 297.871094 L 94.570312 298.667969 L 94.570312 322.085938 L 98.144531 322.085938 L 98.136719 304.351562 C 98.320312 303.453125 98.726562 302.589844 99.335938 301.789062 C 99.957031 300.976562 100.699219 300.246094 101.539062 299.625 C 102.382812 299.003906 103.316406 298.515625 104.320312 298.164062 C 106.042969 297.558594 107.835938 297.464844 109.34375 297.941406 C 109.980469 298.144531 110.566406 298.464844 111.082031 298.898438 L 111.34375 299.113281 L 112.261719 298.097656 L 111.984375 297.859375 C 111.355469 297.335938 110.628906 296.941406 109.8125 296.679688 "/><path style=" stroke:none;fill-rule:nonzero;fill:rgb(13.729858%,12.159729%,12.548828%);fill-opacity:1;" d="M 112.996094 297.875 L 115.027344 298.671875 L 115.027344 322.089844 L 118.550781 322.089844 L 118.550781 296.839844 L 112.996094 296.839844 Z M 112.996094 297.875 "/><path style=" stroke:none;fill-rule:nonzero;fill:rgb(13.729858%,12.159729%,12.548828%);fill-opacity:1;" d="M 116.816406 289.941406 C 116.160156 289.941406 115.613281 290.164062 115.1875 290.589844 C 114.761719 291.015625 114.535156 291.570312 114.535156 292.226562 C 114.535156 292.882812 114.753906 293.433594 115.179688 293.867188 C 115.605469 294.296875 116.160156 294.511719 116.816406 294.511719 C 117.4375 294.511719 117.976562 294.296875 118.421875 293.871094 C 118.871094 293.4375 119.105469 292.882812 119.105469 292.226562 C 119.105469 291.570312 118.871094 291.015625 118.421875 290.585938 C 117.976562 290.15625 117.4375 289.941406 116.816406 289.941406 "/><path style=" stroke:none;fill-rule:nonzero;fill:rgb(13.729858%,12.159729%,12.548828%);fill-opacity:1;" d="M 136.585938 319.851562 C 135.097656 320.800781 133.675781 321.285156 132.363281 321.285156 C 131.425781 321.285156 130.65625 321.027344 130.066406 320.523438 C 129.652344 320.171875 129.320312 319.664062 129.078125 319.011719 C 128.832031 318.34375 128.71875 317.464844 128.753906 316.382812 L 128.753906 298.285156 L 135.390625 298.285156 L 135.390625 296.839844 L 128.757812 296.839844 L 128.757812 283.996094 L 123.199219 283.996094 L 123.199219 284.976562 L 125.179688 285.820312 L 125.179688 296.839844 L 121.664062 296.839844 L 121.664062 298.285156 L 125.179688 298.285156 L 125.179688 315.589844 C 125.179688 317.746094 125.722656 319.492188 126.796875 320.777344 C 127.882812 322.074219 129.542969 322.738281 131.722656 322.738281 C 132.476562 322.738281 133.332031 322.609375 134.265625 322.351562 C 135.207031 322.097656 136.242188 321.625 137.355469 320.949219 L 137.691406 320.746094 L 136.851562 319.6875 Z M 136.585938 319.851562 "/><path style=" stroke:none;fill-rule:nonzero;fill:rgb(13.729858%,12.159729%,12.548828%);fill-opacity:1;" d="M 156.882812 316.03125 C 156.882812 316.785156 156.675781 317.5 156.265625 318.152344 C 155.851562 318.820312 155.285156 319.410156 154.605469 319.914062 C 153.914062 320.417969 153.113281 320.808594 152.230469 321.074219 C 150.5625 321.582031 148.832031 321.632812 147.273438 321.105469 C 146.546875 320.859375 145.898438 320.472656 145.339844 319.964844 C 144.789062 319.460938 144.34375 318.777344 144.019531 317.941406 C 143.699219 317.105469 143.539062 316.078125 143.574219 314.898438 L 143.574219 296.839844 L 138.011719 296.839844 L 138.011719 297.875 L 139.996094 298.671875 L 139.996094 314.898438 C 139.996094 316.207031 140.257812 317.371094 140.773438 318.359375 C 141.292969 319.34375 141.996094 320.179688 142.851562 320.851562 C 143.707031 321.527344 144.6875 322.035156 145.757812 322.375 C 146.832031 322.710938 147.957031 322.886719 149.113281 322.886719 C 150.804688 322.886719 152.457031 322.515625 154.015625 321.789062 C 155.410156 321.136719 156.5625 320.15625 157.449219 318.871094 L 159.097656 322.027344 L 160.410156 322.117188 L 160.410156 296.839844 L 156.886719 296.839844 Z M 156.882812 316.03125 "/><path style=" stroke:none;fill-rule:nonzero;fill:rgb(13.729858%,12.159729%,12.548828%);fill-opacity:1;" d="M 271.273438 305.753906 C 270.292969 304.878906 269.179688 304.105469 267.960938 303.445312 C 266.753906 302.800781 265.511719 302.1875 264.277344 301.628906 C 263.042969 301.070312 261.851562 300.546875 260.730469 300.0625 C 259.632812 299.597656 258.667969 299.113281 257.855469 298.628906 C 256.976562 298.058594 256.238281 297.386719 255.671875 296.632812 C 255.113281 295.886719 254.757812 295.101562 254.621094 294.300781 C 254.484375 293.507812 254.570312 292.683594 254.878906 291.859375 C 255.183594 291.019531 255.753906 290.214844 256.566406 289.464844 C 257.320312 288.777344 258.226562 288.269531 259.277344 287.957031 C 261.117188 287.40625 263.113281 287.328125 265.148438 287.71875 C 265.996094 287.878906 266.816406 288.128906 267.574219 288.464844 C 268.332031 288.796875 269.050781 289.207031 269.683594 289.6875 C 270.308594 290.152344 270.867188 290.710938 271.347656 291.347656 L 271.605469 291.6875 L 272.578125 290.609375 L 272.40625 290.378906 C 271.25 288.84375 269.707031 287.671875 267.824219 286.890625 C 264.699219 285.59375 261.242188 285.363281 258.035156 286.28125 C 256.730469 286.65625 255.535156 287.230469 254.484375 287.996094 C 253.421875 288.765625 252.554688 289.738281 251.910156 290.882812 C 251.253906 292.039062 250.917969 293.386719 250.917969 294.90625 C 250.953125 296.5625 251.429688 298.046875 252.34375 299.324219 C 253.246094 300.585938 254.429688 301.609375 255.863281 302.359375 C 256.636719 302.765625 257.566406 303.183594 258.617188 303.609375 C 259.667969 304.039062 260.757812 304.496094 261.878906 304.972656 C 262.980469 305.445312 264.097656 305.96875 265.199219 306.523438 C 266.28125 307.078125 267.265625 307.6875 268.117188 308.351562 C 268.953125 308.996094 269.65625 309.730469 270.195312 310.527344 C 270.71875 311.296875 270.996094 312.148438 271.027344 313.074219 C 271.085938 314.335938 270.90625 315.46875 270.488281 316.4375 C 270.066406 317.40625 269.476562 318.234375 268.742188 318.890625 C 268.011719 319.550781 267.132812 320.0625 266.160156 320.410156 C 265.175781 320.761719 264.125 320.972656 263.058594 321.03125 C 260.835938 321.03125 258.660156 320.605469 256.601562 319.769531 C 254.550781 318.9375 252.765625 317.648438 251.289062 315.949219 L 251.0625 315.6875 L 249.925781 316.632812 L 250.160156 316.90625 C 251.800781 318.820312 253.785156 320.308594 256.050781 321.335938 C 258.320312 322.363281 260.671875 322.882812 263.058594 322.882812 C 264.574219 322.882812 266.042969 322.660156 267.425781 322.21875 C 268.816406 321.777344 270.050781 321.125 271.101562 320.273438 C 272.164062 319.414062 273.019531 318.34375 273.644531 317.085938 C 274.28125 315.820312 274.601562 314.347656 274.601562 312.710938 C 274.601562 311.234375 274.28125 309.90625 273.667969 308.773438 C 273.0625 307.652344 272.25 306.636719 271.265625 305.753906 "/><path style=" stroke:none;fill-rule:nonzero;fill:rgb(13.729858%,12.159729%,12.548828%);fill-opacity:1;" d="M 290.234375 319.226562 C 289.574219 319.730469 288.820312 320.128906 288.003906 320.410156 C 286.761719 320.84375 285.414062 320.945312 284.21875 320.726562 C 283.832031 320.648438 283.445312 320.515625 283.070312 320.335938 L 283.066406 320.328125 C 282.367188 319.996094 281.789062 319.503906 281.347656 318.859375 C 280.902344 318.214844 280.605469 317.488281 280.464844 316.71875 C 280.328125 315.949219 280.34375 315.152344 280.511719 314.378906 C 280.679688 313.613281 281.011719 312.949219 281.492188 312.40625 C 282.246094 311.589844 283.179688 310.96875 284.25 310.5625 C 285.382812 310.136719 286.527344 309.726562 287.65625 309.351562 C 288.804688 308.972656 289.902344 308.484375 290.910156 307.910156 C 291.589844 307.523438 292.15625 307.027344 292.613281 306.410156 L 292.621094 315.554688 C 292.558594 316.214844 292.3125 316.875 291.886719 317.496094 C 291.445312 318.140625 290.886719 318.722656 290.230469 319.226562 M 293.492188 298.058594 C 292.703125 297.410156 291.777344 296.910156 290.746094 296.585938 C 288.820312 295.976562 286.738281 295.925781 284.675781 296.511719 C 283.695312 296.785156 282.789062 297.21875 281.96875 297.796875 C 281.148438 298.378906 280.40625 299.117188 279.757812 299.980469 C 279.105469 300.855469 278.621094 301.90625 278.3125 303.101562 L 278.21875 303.46875 L 279.703125 303.746094 L 279.789062 303.429688 C 280.039062 302.492188 280.429688 301.65625 280.941406 300.945312 C 281.472656 300.226562 282.070312 299.609375 282.726562 299.109375 C 283.382812 298.605469 284.113281 298.226562 284.882812 297.972656 C 286.992188 297.285156 289.0625 297.542969 290.695312 298.808594 C 291.648438 299.554688 292.265625 300.703125 292.515625 302.238281 L 292.515625 302.554688 C 292.515625 303.507812 292.328125 304.316406 291.949219 304.953125 C 291.5625 305.597656 291.039062 306.148438 290.394531 306.574219 C 289.738281 307.015625 288.964844 307.386719 288.101562 307.671875 C 287.214844 307.96875 286.28125 308.269531 285.3125 308.5625 C 284.34375 308.855469 283.375 309.175781 282.425781 309.503906 C 281.460938 309.84375 280.542969 310.277344 279.710938 310.777344 C 278.496094 311.507812 277.625 312.46875 277.121094 313.644531 C 276.621094 314.804688 276.441406 315.984375 276.601562 317.15625 C 276.757812 318.328125 277.257812 319.410156 278.09375 320.386719 C 278.929688 321.363281 280.105469 322.050781 281.589844 322.429688 C 282.410156 322.636719 283.269531 322.738281 284.148438 322.738281 C 285.972656 322.738281 287.742188 322.328125 289.402344 321.511719 C 290.886719 320.78125 292.085938 319.75 292.976562 318.433594 L 294.824219 322.089844 L 296.136719 322.089844 L 296.136719 303.683594 C 296.136719 302.472656 295.890625 301.382812 295.402344 300.441406 C 294.921875 299.519531 294.277344 298.710938 293.480469 298.050781 "/><path style=" stroke:none;fill-rule:nonzero;fill:rgb(13.729858%,12.159729%,12.548828%);fill-opacity:1;" d="M 318.675781 298.082031 C 317.832031 297.414062 316.855469 296.898438 315.761719 296.554688 C 313.132812 295.734375 310.246094 295.910156 307.671875 297.042969 C 306.476562 297.566406 305.453125 298.335938 304.617188 299.339844 L 304.617188 296.78125 L 299.113281 296.839844 L 299.113281 297.871094 L 301.089844 298.667969 L 301.089844 322.085938 L 304.613281 322.085938 L 304.613281 302.890625 C 304.613281 302.105469 304.820312 301.386719 305.230469 300.75 C 305.644531 300.097656 306.207031 299.511719 306.894531 299.011719 C 307.582031 298.507812 308.386719 298.117188 309.269531 297.851562 C 310.945312 297.339844 312.660156 297.285156 314.230469 297.820312 C 314.957031 298.070312 315.609375 298.449219 316.160156 298.960938 C 316.710938 299.460938 317.15625 300.140625 317.484375 300.960938 C 317.8125 301.78125 317.96875 302.816406 317.929688 304.03125 L 317.929688 322.085938 L 321.503906 322.085938 L 321.503906 304.03125 C 321.503906 302.722656 321.242188 301.558594 320.722656 300.570312 C 320.203125 299.589844 319.515625 298.75 318.675781 298.082031 "/><path style=" stroke:none;fill-rule:nonzero;fill:rgb(13.729858%,12.159729%,12.548828%);fill-opacity:1;" d="M 339.089844 319.851562 C 337.601562 320.800781 336.183594 321.285156 334.867188 321.285156 C 333.929688 321.285156 333.160156 321.027344 332.570312 320.523438 C 332.15625 320.171875 331.824219 319.664062 331.582031 319.011719 C 331.335938 318.34375 331.222656 317.464844 331.257812 316.382812 L 331.257812 298.285156 L 337.894531 298.285156 L 337.894531 296.839844 L 331.265625 296.839844 L 331.265625 283.996094 L 325.707031 283.996094 L 325.707031 284.976562 L 327.683594 285.820312 L 327.683594 296.839844 L 324.167969 296.839844 L 324.167969 298.285156 L 327.683594 298.285156 L 327.683594 315.589844 C 327.683594 317.746094 328.226562 319.492188 329.300781 320.777344 C 330.386719 322.074219 332.046875 322.738281 334.226562 322.738281 C 334.980469 322.738281 335.839844 322.609375 336.773438 322.351562 C 337.710938 322.097656 338.746094 321.625 339.859375 320.949219 L 340.195312 320.746094 L 339.355469 319.6875 Z M 339.089844 319.851562 "/><path style=" stroke:none;fill-rule:nonzero;fill:rgb(13.729858%,12.159729%,12.548828%);fill-opacity:1;" d="M 342.480469 309.4375 C 342.496094 307.378906 342.816406 305.433594 343.449219 303.652344 C 344.070312 301.894531 345.015625 300.414062 346.253906 299.25 C 347.46875 298.113281 349 297.535156 350.816406 297.535156 C 352.632812 297.535156 354.175781 298.117188 355.40625 299.257812 C 356.65625 300.417969 357.601562 301.894531 358.210938 303.652344 C 358.820312 305.421875 359.140625 307.371094 359.160156 309.4375 C 359.179688 311.507812 358.867188 313.453125 358.238281 315.21875 C 357.617188 316.976562 356.671875 318.457031 355.433594 319.617188 C 354.210938 320.75 352.664062 321.332031 350.816406 321.332031 C 349 321.332031 347.46875 320.753906 346.253906 319.617188 C 345.015625 318.457031 344.058594 316.972656 343.421875 315.214844 C 342.78125 313.4375 342.464844 311.492188 342.480469 309.433594 M 361.390625 303.085938 C 360.507812 301.125 359.179688 299.46875 357.441406 298.164062 C 355.683594 296.847656 353.453125 296.179688 350.816406 296.179688 C 348.210938 296.179688 345.992188 296.847656 344.222656 298.15625 C 342.464844 299.460938 341.136719 301.121094 340.269531 303.082031 C 339.414062 305.035156 338.964844 307.175781 338.949219 309.445312 C 338.933594 311.714844 339.367188 313.859375 340.242188 315.816406 C 341.125 317.78125 342.457031 319.4375 344.21875 320.742188 C 345.988281 322.054688 348.207031 322.71875 350.8125 322.71875 C 353.453125 322.71875 355.683594 322.054688 357.4375 320.742188 C 359.175781 319.4375 360.503906 317.78125 361.386719 315.816406 C 362.261719 313.859375 362.703125 311.71875 362.703125 309.449219 C 362.703125 307.179688 362.257812 305.039062 361.386719 303.082031 "/><path style=" stroke:none;fill-rule:nonzero;fill:rgb(13.729858%,12.159729%,12.548828%);fill-opacity:1;" d="M 88.453125 287.941406 L 85.90625 293.4375 L 87.878906 293.4375 L 91.730469 287.941406 Z M 88.453125 287.941406 "/></g></svg>